<?xml version="1.0" encoding="utf-8"?>
<!-- Generator: Adobe Illustrator 17.0.0, SVG Export Plug-In . SVG Version: 6.00 Build 0)  -->
<!DOCTYPE svg PUBLIC "-//W3C//DTD SVG 1.1//EN" "http://www.w3.org/Graphics/SVG/1.1/DTD/svg11.dtd">
<svg version="1.1" id="Calque_1" xmlns="http://www.w3.org/2000/svg" xmlns:xlink="http://www.w3.org/1999/xlink" x="0px" y="0px"
	 width="804px" height="203.192px" viewBox="66.445 -1714.169 804 203.192" enable-background="new 66.445 -1714.169 804 203.192"
	 xml:space="preserve">
<path fill="none" stroke="#000000" stroke-miterlimit="10" d="M164.536-385.38v-146.111h97.406v48.705h-48.705v97.406
	L164.536-385.38L164.536-385.38z"/>
<path fill="none" stroke="#000000" stroke-miterlimit="10" d="M501.112-385.38v-48.701h48.703v-97.41h97.411v48.705h-48.705v97.406
	L501.112-385.38L501.112-385.38z"/>
<path fill="#00FFBE" d="M440.563-1092.886c0,10.842-8.785,19.617-19.623,19.617c-10.836,0-19.614-8.775-19.614-19.617
	c0-10.834,8.778-19.615,19.614-19.615C431.778-1112.501,440.563-1103.72,440.563-1092.886z"/>
<g>
	<g>
		<g>
			<path fill="#FFFFFF" d="M259.724-2937.964v-294.435h196.287v98.147h-98.148v196.287L259.724-2937.964L259.724-2937.964z"/>
			<path fill="#FFFFFF" d="M381.738-2937.964v-98.14h98.142v-196.295h196.296v98.147h-98.147v196.287L381.738-2937.964
				L381.738-2937.964z"/>
		</g>
	</g>
	<path fill="#00FFBE" d="M675.996-2977.496c0,21.848-17.703,39.531-39.543,39.531c-21.836,0-39.524-17.684-39.524-39.531
		c0-21.832,17.688-39.528,39.524-39.528C658.292-3017.023,675.996-2999.328,675.996-2977.496z"/>
</g>
<g>
	<path d="M162.083-2328.968v-70.983h47.322v23.661h-23.661v47.322H162.083z"/>
	<path d="M221.25-2328.968v-70.983h70.983v70.983h-23.661v-47.322h-23.661v23.661h23.661l-23.661,23.661L221.25-2328.968
		L221.25-2328.968z"/>
	<path d="M304.078-2305.306v-94.644H351.4l23.661,23.661v47.322h-47.322v23.661L304.078-2305.306L304.078-2305.306z M351.4-2352.629
		v-23.661h-23.661v23.661H351.4z"/>
	<path d="M386.906-2328.968v-23.661h23.661v-47.322h47.322v23.661h-23.661v47.322H386.906z"/>
	<path d="M469.735-2328.968v-47.322l23.661-23.661h47.322v47.322l-23.661,23.661H469.735z M517.057-2352.629v-23.661h-23.661v23.661
		H517.057z"/>
	<path d="M552.563-2328.968v-47.322l23.661-23.661h23.661v-23.661h23.661v94.644L552.563-2328.968L552.563-2328.968z
		 M599.885-2352.629v-23.661h-23.661v23.661H599.885z"/>
	<path d="M670.868-2328.968v-47.322l23.661-23.661h47.322v23.661l-23.661,23.661h23.661v23.661L670.868-2328.968L670.868-2328.968z
		 M718.19-2352.629v-23.661h-23.661v23.661H718.19z"/>
	<g>
		<path d="M635.391-2328.968v-35.477h23.661v35.477H635.391z"/>
		<path fill="#00FFBE" d="M659.876-2387.298c0,6.994-5.667,12.654-12.658,12.654c-6.99,0-12.652-5.661-12.652-12.654
			c0-6.989,5.662-12.653,12.652-12.653C654.209-2399.951,659.876-2394.286,659.876-2387.298z"/>
	</g>
</g>
<g>
	<polygon fill="#FFFFFF" points="176.282,-1930.341 176.282,-1868.024 197.054,-1868.024 197.054,-1909.569 217.827,-1909.569 
		217.827,-1930.341 	"/>
	<polygon fill="#FFFFFF" points="228.226,-1868.023 228.226,-1930.34 290.544,-1930.34 290.544,-1868.023 269.771,-1868.023 
		269.771,-1909.568 248.999,-1909.568 248.999,-1888.795 269.771,-1888.795 248.999,-1868.023 	"/>
	<path fill="#FFFFFF" d="M342.488-1909.568h-20.772v20.772h20.772V-1909.568z M300.943-1847.25v-83.09h41.545l20.772,20.772v41.545
		h-41.545v20.773H300.943z"/>
	<polygon fill="#FFFFFF" points="373.659,-1868.023 373.659,-1888.795 394.432,-1888.795 394.432,-1930.34 435.977,-1930.34 
		435.977,-1909.568 415.204,-1909.568 415.204,-1868.023 	"/>
	<path fill="#FFFFFF" d="M487.921-1909.568h-20.772v20.772h20.772V-1909.568z M446.376-1868.023v-41.545l20.772-20.772h41.545
		v41.545l-20.772,20.772H446.376z"/>
	<path fill="#FFFFFF" d="M539.866-1909.568h20.773v20.772h-20.773V-1909.568z M560.638-1951.113v20.772h-20.773l-20.772,20.772
		v41.545h62.316v-83.09L560.638-1951.113L560.638-1951.113z"/>
	<path fill="#FFFFFF" d="M664.5-1909.568h-20.772v20.772H664.5V-1909.568z M622.956-1868.023v-41.545l20.772-20.772h41.545v20.772
		l-20.772,20.772h20.772v20.772h-62.317V-1868.023z"/>
	<rect x="591.809" y="-1899.17" fill="#FFFFFF" width="20.772" height="31.146"/>
</g>
<path fill="#00FFBE" d="M613.306-1919.232c0,6.14-4.975,11.109-11.113,11.109c-6.136,0-11.108-4.969-11.108-11.109
	c0-6.136,4.972-11.109,11.108-11.109C608.33-1930.341,613.306-1925.368,613.306-1919.232"/>
<g>
	<polygon fill="#FFFFFF" points="409.264,177.889 409.264,415.531 488.474,415.531 488.474,257.105 567.69,257.105 567.69,177.889 	
		"/>
	<polygon fill="#FFFFFF" points="586.954,177.889 586.954,336.324 507.741,336.324 507.741,415.531 666.17,415.531 666.17,257.105 
		745.389,257.105 745.389,177.889 	"/>
	<path fill="#00FFBE" d="M745.24,383.625c0,17.633-14.289,31.907-31.916,31.907c-17.624,0-31.901-14.274-31.901-31.907
		c0-17.621,14.277-31.904,31.901-31.904C730.951,351.721,745.24,366.004,745.24,383.625"/>
	<path fill="#FFFFFF" d="M195.689,222.209c-0.14-0.14-0.209-0.31-0.209-0.507v-40.333c0-0.197,0.07-0.367,0.209-0.507
		c0.14-0.14,0.306-0.209,0.507-0.209h5.489c0.197,0,0.367,0.07,0.507,0.209c0.14,0.14,0.209,0.31,0.209,0.507v40.333
		c0,0.197-0.07,0.367-0.209,0.507c-0.14,0.14-0.31,0.209-0.507,0.209h-5.489C195.995,222.419,195.828,222.349,195.689,222.209"/>
	<path fill="#FFFFFF" d="M217.345,180.863c0.1,0.14,0.109,0.349,0.03,0.625l-3.878,11.576c-0.118,0.398-0.379,0.595-0.777,0.595
		h-4.115c-0.519,0-0.716-0.258-0.598-0.774l2.506-11.573c0.079-0.44,0.337-0.658,0.774-0.658h5.55
		C217.078,180.654,217.245,180.724,217.345,180.863"/>
	<path fill="#FFFFFF" d="M223.849,222.209c-0.14-0.14-0.209-0.306-0.209-0.507v-29.054c0-0.2,0.07-0.37,0.209-0.51
		c0.14-0.137,0.306-0.206,0.507-0.206h5.489c0.197,0,0.367,0.07,0.507,0.206c0.14,0.14,0.209,0.31,0.209,0.51v29.054
		c0,0.2-0.07,0.367-0.209,0.507c-0.14,0.14-0.31,0.209-0.507,0.209h-5.489C224.155,222.418,223.988,222.349,223.849,222.209
		 M223.997,186.561c-0.795-0.795-1.193-1.808-1.193-3.044c0-1.232,0.398-2.245,1.193-3.043c0.795-0.795,1.809-1.193,3.044-1.193
		c1.232,0,2.236,0.397,3.013,1.193c0.774,0.798,1.162,1.812,1.162,3.043c0,1.235-0.398,2.249-1.193,3.044
		c-0.795,0.795-1.79,1.193-2.983,1.193C225.806,187.753,224.792,187.356,223.997,186.561"/>
	<path fill="#FFFFFF" d="M258.154,194.048c1.332,1.733,2,4.187,2,7.368v20.288c0,0.197-0.07,0.367-0.209,0.507
		c-0.14,0.14-0.309,0.209-0.507,0.209h-5.489c-0.2,0-0.37-0.07-0.507-0.209c-0.14-0.14-0.209-0.31-0.209-0.507v-19.751
		c0-1.432-0.297-2.543-0.895-3.341c-0.598-0.795-1.453-1.193-2.564-1.193c-1.156,0-2.051,0.419-2.685,1.253
		c-0.637,0.834-0.956,1.988-0.956,3.459v19.572c0,0.197-0.07,0.367-0.209,0.507c-0.14,0.14-0.306,0.209-0.507,0.209h-5.489
		c-0.2,0-0.367-0.07-0.507-0.209c-0.14-0.14-0.209-0.31-0.209-0.507v-29.057c0-0.2,0.07-0.367,0.209-0.507
		c0.14-0.14,0.306-0.209,0.507-0.209h5.489c0.2,0,0.367,0.07,0.507,0.209c0.14,0.14,0.209,0.306,0.209,0.507v1.193
		c0,0.121,0.052,0.191,0.149,0.209c0.1,0.021,0.209-0.049,0.331-0.209c1.35-1.59,3.241-2.385,5.665-2.385
		C254.861,191.453,256.821,192.318,258.154,194.048"/>
	<path fill="#FFFFFF" d="M270.235,220.509c-1.869-1.511-2.804-3.559-2.804-6.145v-0.419c0-0.197,0.07-0.367,0.209-0.507
		c0.137-0.14,0.306-0.209,0.507-0.209h5.131c0.197,0,0.367,0.07,0.507,0.209c0.14,0.14,0.209,0.31,0.209,0.507v0.297
		c0,0.956,0.367,1.751,1.102,2.388c0.737,0.637,1.642,0.953,2.716,0.953c1.035,0,1.851-0.297,2.446-0.895
		c0.598-0.595,0.895-1.35,0.895-2.267c0-0.795-0.258-1.463-0.777-1.997c-0.516-0.537-1.071-0.947-1.669-1.223
		c-0.598-0.279-1.672-0.737-3.223-1.372c-2.267-0.877-4.127-1.991-5.577-3.344c-1.453-1.35-2.179-3.359-2.179-6.026
		c0-2.783,0.886-4.958,2.655-6.53s4.166-2.358,7.188-2.358c3.104,0,5.559,0.825,7.371,2.476c1.809,1.651,2.713,3.869,2.713,6.651
		c0,0.2-0.07,0.367-0.209,0.507c-0.14,0.14-0.306,0.209-0.507,0.209h-5.01c-0.2,0-0.37-0.07-0.507-0.209
		c-0.14-0.14-0.209-0.306-0.209-0.507v-0.358c0-0.953-0.328-1.751-0.986-2.385c-0.655-0.637-1.481-0.956-2.476-0.956
		c-1.035,0-1.857,0.328-2.476,0.986c-0.616,0.655-0.922,1.441-0.922,2.355c0,0.756,0.237,1.393,0.716,1.909
		c0.476,0.519,1.013,0.925,1.608,1.223c0.598,0.3,1.593,0.746,2.986,1.344c1.669,0.677,3.071,1.341,4.206,2
		c1.132,0.655,2.127,1.59,2.983,2.801c0.856,1.217,1.284,2.716,1.284,4.506c0,2.667-0.938,4.773-2.804,6.324
		c-1.872,1.554-4.397,2.327-7.58,2.327C274.611,222.776,272.104,222.02,270.235,220.509"/>
	<path fill="#FFFFFF" d="M307.673,196.614c-0.14,0.14-0.31,0.209-0.507,0.209h-3.699c-0.2,0-0.3,0.1-0.3,0.297v15.63
		c0,1.396,0.261,2.358,0.777,2.895s1.293,0.786,2.327,0.746h0.419c0.197,0,0.367,0.07,0.507,0.209
		c0.137,0.14,0.206,0.306,0.206,0.507v4.594c0,0.197-0.07,0.367-0.206,0.507c-0.14,0.14-0.31,0.209-0.507,0.209h-2.03
		c-2.707,0-4.743-0.498-6.114-1.493c-1.375-0.992-2.06-2.864-2.06-5.608v-18.197c0-0.197-0.1-0.297-0.297-0.297H294.1
		c-0.2,0-0.37-0.07-0.507-0.209c-0.14-0.14-0.209-0.31-0.209-0.507v-3.462c0-0.197,0.07-0.367,0.209-0.507
		c0.137-0.137,0.306-0.209,0.507-0.209h2.088c0.197,0,0.297-0.097,0.297-0.297v-6.563c0-0.197,0.07-0.367,0.209-0.507
		s0.31-0.209,0.507-0.209h5.253c0.197,0,0.367,0.07,0.507,0.209c0.137,0.14,0.206,0.31,0.206,0.507v6.563c0,0.2,0.1,0.297,0.3,0.297
		h3.699c0.197,0,0.367,0.073,0.507,0.209c0.14,0.14,0.209,0.31,0.209,0.507v3.462C307.882,196.305,307.813,196.475,307.673,196.614"
		/>
	<path fill="#FFFFFF" d="M315.37,222.209c-0.14-0.14-0.209-0.306-0.209-0.507v-29.054c0-0.2,0.07-0.37,0.209-0.51
		c0.14-0.137,0.306-0.206,0.507-0.206h5.489c0.197,0,0.367,0.07,0.507,0.206c0.14,0.14,0.209,0.31,0.209,0.51v29.054
		c0,0.2-0.07,0.367-0.209,0.507c-0.14,0.14-0.31,0.209-0.507,0.209h-5.489C315.676,222.418,315.509,222.349,315.37,222.209
		 M315.518,186.561c-0.795-0.795-1.193-1.808-1.193-3.044c0-1.232,0.397-2.245,1.193-3.043c0.795-0.795,1.809-1.193,3.044-1.193
		c1.232,0,2.236,0.397,3.013,1.193c0.774,0.798,1.162,1.812,1.162,3.043c0,1.235-0.398,2.249-1.193,3.044
		c-0.795,0.795-1.79,1.193-2.983,1.193C317.327,187.753,316.314,187.356,315.518,186.561"/>
	<path fill="#FFFFFF" d="M343.291,196.614c-0.14,0.14-0.31,0.209-0.507,0.209h-3.699c-0.2,0-0.3,0.1-0.3,0.297v15.63
		c0,1.396,0.261,2.358,0.777,2.895c0.516,0.537,1.293,0.786,2.327,0.746h0.419c0.197,0,0.367,0.07,0.507,0.209
		c0.137,0.14,0.206,0.306,0.206,0.507v4.594c0,0.197-0.07,0.367-0.206,0.507c-0.14,0.14-0.31,0.209-0.507,0.209h-2.03
		c-2.707,0-4.743-0.498-6.114-1.493c-1.375-0.992-2.06-2.864-2.06-5.608v-18.197c0-0.197-0.1-0.297-0.297-0.297h-2.088
		c-0.2,0-0.37-0.07-0.507-0.209c-0.14-0.14-0.209-0.31-0.209-0.507v-3.462c0-0.197,0.07-0.367,0.209-0.507
		c0.137-0.137,0.306-0.209,0.507-0.209h2.088c0.197,0,0.297-0.097,0.297-0.297v-6.563c0-0.197,0.07-0.367,0.209-0.507
		c0.14-0.14,0.309-0.209,0.507-0.209h5.253c0.197,0,0.367,0.07,0.507,0.209c0.137,0.14,0.206,0.31,0.206,0.507v6.563
		c0,0.2,0.1,0.297,0.3,0.297h3.699c0.197,0,0.367,0.073,0.507,0.209c0.14,0.14,0.209,0.31,0.209,0.507v3.462
		C343.501,196.305,343.431,196.475,343.291,196.614"/>
	<path fill="#FFFFFF" d="M364.531,192.139c0.14-0.14,0.306-0.209,0.507-0.209h5.489c0.2,0,0.367,0.07,0.507,0.209
		c0.14,0.14,0.209,0.31,0.209,0.507v29.057c0,0.197-0.07,0.367-0.209,0.507c-0.14,0.14-0.306,0.209-0.507,0.209h-5.489
		c-0.2,0-0.367-0.07-0.507-0.209c-0.14-0.14-0.209-0.31-0.209-0.507v-1.314c0-0.118-0.039-0.2-0.118-0.24
		c-0.082-0.036-0.161,0-0.24,0.121c-1.153,1.711-3.004,2.564-5.547,2.564c-2.427,0-4.388-0.725-5.878-2.176
		c-1.493-1.453-2.236-3.69-2.236-6.715v-21.298c0-0.197,0.067-0.367,0.206-0.507c0.14-0.14,0.31-0.209,0.51-0.209h5.486
		c0.2,0,0.37,0.07,0.51,0.209c0.137,0.14,0.206,0.31,0.206,0.507v19.809c0,2.983,1.153,4.476,3.462,4.476
		c1.153,0,2.048-0.428,2.685-1.284c0.634-0.856,0.953-2.018,0.953-3.49v-19.511C364.322,192.448,364.391,192.278,364.531,192.139"/>
	<path fill="#FFFFFF" d="M392.214,196.614c-0.14,0.14-0.31,0.209-0.507,0.209h-3.699c-0.2,0-0.3,0.1-0.3,0.297v15.63
		c0,1.396,0.261,2.358,0.777,2.895c0.516,0.537,1.293,0.786,2.327,0.746h0.419c0.197,0,0.367,0.07,0.507,0.209
		c0.137,0.14,0.206,0.306,0.206,0.507v4.594c0,0.197-0.07,0.367-0.206,0.507c-0.14,0.14-0.309,0.209-0.507,0.209h-2.03
		c-2.704,0-4.743-0.498-6.114-1.493c-1.372-0.992-2.06-2.864-2.06-5.608v-18.197c0-0.197-0.1-0.297-0.297-0.297h-2.088
		c-0.2,0-0.367-0.07-0.507-0.209s-0.209-0.31-0.209-0.507v-3.462c0-0.197,0.07-0.367,0.209-0.507
		c0.14-0.137,0.306-0.209,0.507-0.209h2.088c0.197,0,0.297-0.097,0.297-0.297v-6.563c0-0.197,0.07-0.367,0.209-0.507
		c0.14-0.14,0.31-0.209,0.507-0.209h5.253c0.197,0,0.367,0.07,0.507,0.209c0.137,0.14,0.206,0.31,0.206,0.507v6.563
		c0,0.2,0.1,0.297,0.3,0.297h3.699c0.197,0,0.367,0.073,0.507,0.209c0.14,0.14,0.209,0.31,0.209,0.507v3.462
		C392.423,196.305,392.353,196.475,392.214,196.614"/>
	<path fill="#FFFFFF" d="M305.317,277.237c0.634-0.616,1.035-1.441,1.193-2.476v-12.708c-0.158-1.035-0.558-1.86-1.193-2.476
		c-0.637-0.616-1.432-0.926-2.388-0.926c-1.114,0-2.009,0.388-2.682,1.165c-0.677,0.774-1.017,1.799-1.017,3.071v11.036
		c0,1.274,0.34,2.297,1.017,3.074c0.674,0.777,1.569,1.165,2.682,1.165C303.885,278.163,304.68,277.853,305.317,277.237
		 M306.719,242.096c0.14-0.14,0.306-0.209,0.507-0.209h5.489c0.2,0,0.367,0.07,0.507,0.209c0.14,0.14,0.209,0.31,0.209,0.507v40.333
		c0,0.197-0.07,0.367-0.209,0.507c-0.14,0.14-0.306,0.209-0.507,0.209h-5.489c-0.2,0-0.367-0.07-0.507-0.209
		c-0.14-0.14-0.209-0.31-0.209-0.507v-0.716c0-0.121-0.039-0.2-0.118-0.24c-0.082-0.039-0.161-0.018-0.24,0.058
		c-1.432,1.396-3.223,2.091-5.368,2.091c-2.667,0-4.734-0.874-6.205-2.625s-2.209-4.096-2.209-7.04V262.35
		c0-3.022,0.746-5.389,2.239-7.1c1.49-1.708,3.547-2.564,6.175-2.564c0.913,0,1.848,0.17,2.804,0.507
		c0.953,0.34,1.809,0.886,2.564,1.642c0.079,0.079,0.158,0.1,0.24,0.058c0.079-0.036,0.118-0.118,0.118-0.237v-12.053
		C306.509,242.405,306.579,242.235,306.719,242.096"/>
	<path fill="#FFFFFF" d="M334.55,277.266c0.916-0.756,1.375-1.809,1.375-3.162v-3.402c0-0.197-0.1-0.297-0.3-0.297h-3.101
		c-1.353,0-2.446,0.37-3.283,1.105c-0.834,0.737-1.25,1.799-1.25,3.192c0,1.232,0.316,2.157,0.953,2.773s1.45,0.925,2.446,0.925
		C332.584,278.401,333.637,278.025,334.55,277.266 M339.921,255.43c1.948,1.83,2.922,4.236,2.922,7.219v20.285
		c0,0.2-0.07,0.367-0.209,0.507c-0.14,0.14-0.306,0.209-0.507,0.209h-5.486c-0.2,0-0.37-0.07-0.51-0.209s-0.206-0.306-0.206-0.507
		v-1.132c0-0.121-0.042-0.2-0.121-0.24c-0.079-0.039-0.158,0-0.237,0.118c-1.393,1.633-3.423,2.446-6.087,2.446
		c-2.267,0-4.266-0.646-5.996-1.939s-2.594-3.647-2.594-7.07c0-3.578,1.044-6.123,3.132-7.635c2.088-1.514,4.922-2.27,8.502-2.27
		h3.101c0.2,0,0.3-0.097,0.3-0.297v-1.551c0-1.432-0.358-2.573-1.074-3.432c-0.716-0.853-1.611-1.281-2.685-1.281
		c-0.834,0-1.532,0.267-2.088,0.804c-0.558,0.537-0.895,1.262-1.017,2.176c-0.039,0.479-0.297,0.716-0.774,0.716H322.5
		c-0.479,0-0.698-0.237-0.658-0.716c0.2-2.701,1.262-4.87,3.192-6.503c1.93-1.629,4.345-2.443,7.249-2.443
		C335.424,252.687,337.97,253.601,339.921,255.43"/>
	<path fill="#FFFFFF" d="M363.338,257.847c-0.14,0.14-0.31,0.209-0.507,0.209h-3.699c-0.2,0-0.3,0.1-0.3,0.297v15.63
		c0,1.396,0.261,2.358,0.777,2.895s1.293,0.786,2.327,0.746h0.419c0.197,0,0.367,0.07,0.507,0.209
		c0.137,0.14,0.206,0.306,0.206,0.507v4.594c0,0.197-0.07,0.367-0.206,0.507c-0.14,0.14-0.309,0.209-0.507,0.209h-2.03
		c-2.707,0-4.743-0.498-6.114-1.493c-1.375-0.992-2.06-2.864-2.06-5.608v-18.197c0-0.197-0.1-0.297-0.297-0.297h-2.088
		c-0.2,0-0.37-0.07-0.507-0.209c-0.14-0.14-0.209-0.31-0.209-0.507v-3.462c0-0.197,0.07-0.367,0.209-0.507
		c0.137-0.137,0.306-0.209,0.507-0.209h2.088c0.197,0,0.297-0.097,0.297-0.297v-6.563c0-0.197,0.07-0.367,0.209-0.507
		c0.14-0.14,0.31-0.209,0.507-0.209h5.253c0.197,0,0.367,0.07,0.507,0.209c0.137,0.14,0.206,0.31,0.206,0.507v6.563
		c0,0.2,0.1,0.297,0.3,0.297h3.699c0.197,0,0.367,0.073,0.507,0.209c0.14,0.14,0.209,0.31,0.209,0.507v3.462
		C363.547,257.537,363.477,257.707,363.338,257.847"/>
	<path fill="#FFFFFF" d="M383.234,277.266c0.916-0.756,1.375-1.809,1.375-3.162v-3.402c0-0.197-0.1-0.297-0.3-0.297h-3.101
		c-1.353,0-2.446,0.37-3.28,1.105c-0.837,0.737-1.253,1.799-1.253,3.192c0,1.232,0.316,2.157,0.953,2.773s1.45,0.925,2.446,0.925
		C381.267,278.401,382.32,278.025,383.234,277.266 M388.605,255.43c1.948,1.83,2.922,4.236,2.922,7.219v20.285
		c0,0.2-0.07,0.367-0.206,0.507c-0.14,0.14-0.31,0.209-0.51,0.209h-5.486c-0.2,0-0.37-0.07-0.51-0.209
		c-0.14-0.14-0.206-0.306-0.206-0.507v-1.132c0-0.121-0.042-0.2-0.121-0.24c-0.079-0.039-0.158,0-0.237,0.118
		c-1.393,1.633-3.423,2.446-6.087,2.446c-2.267,0-4.266-0.646-5.996-1.939s-2.594-3.647-2.594-7.07c0-3.578,1.044-6.123,3.132-7.635
		c2.088-1.514,4.922-2.27,8.502-2.27h3.101c0.2,0,0.3-0.097,0.3-0.297v-1.551c0-1.432-0.358-2.573-1.074-3.432
		c-0.716-0.853-1.611-1.281-2.685-1.281c-0.834,0-1.532,0.267-2.088,0.804c-0.558,0.537-0.895,1.262-1.013,2.176
		c-0.042,0.479-0.3,0.716-0.777,0.716h-5.787c-0.479,0-0.698-0.237-0.658-0.716c0.2-2.701,1.262-4.87,3.192-6.503
		c1.93-1.629,4.345-2.443,7.249-2.443C384.111,252.687,386.657,253.601,388.605,255.43"/>
	<path fill="#FFFFFF" d="M259.259,338.469c0.634-0.616,1.035-1.441,1.193-2.476v-12.708c-0.158-1.035-0.558-1.857-1.193-2.476
		c-0.637-0.616-1.432-0.925-2.388-0.925c-1.114,0-2.009,0.388-2.682,1.165c-0.677,0.774-1.017,1.799-1.017,3.071v11.036
		c0,1.274,0.34,2.297,1.017,3.074c0.674,0.777,1.569,1.165,2.682,1.165C257.826,339.395,258.621,339.085,259.259,338.469
		 M260.661,303.328c0.14-0.14,0.306-0.209,0.507-0.209h5.489c0.2,0,0.367,0.07,0.507,0.209c0.14,0.14,0.209,0.31,0.209,0.507v40.333
		c0,0.197-0.07,0.367-0.209,0.507s-0.306,0.209-0.507,0.209h-5.489c-0.2,0-0.367-0.07-0.507-0.209s-0.209-0.31-0.209-0.507v-0.716
		c0-0.121-0.039-0.2-0.118-0.24c-0.082-0.039-0.161-0.018-0.24,0.058c-1.432,1.396-3.223,2.091-5.368,2.091
		c-2.667,0-4.734-0.874-6.205-2.625s-2.209-4.096-2.209-7.04v-12.113c0-3.022,0.746-5.389,2.239-7.1
		c1.49-1.708,3.547-2.564,6.175-2.564c0.913,0,1.848,0.17,2.804,0.507c0.953,0.34,1.809,0.886,2.564,1.642
		c0.079,0.079,0.158,0.1,0.24,0.058c0.079-0.036,0.118-0.118,0.118-0.237v-12.053C260.451,303.638,260.521,303.468,260.661,303.328"
		/>
	<path fill="#FFFFFF" d="M289.835,314.604c0.14-0.137,0.306-0.209,0.507-0.209h5.489c0.2,0,0.367,0.073,0.507,0.209
		c0.14,0.14,0.209,0.31,0.209,0.507v29.057c0,0.197-0.07,0.367-0.209,0.507s-0.306,0.209-0.507,0.209h-5.489
		c-0.2,0-0.367-0.07-0.507-0.209c-0.14-0.14-0.209-0.31-0.209-0.507v-1.314c0-0.118-0.039-0.2-0.118-0.24
		c-0.082-0.036-0.161,0-0.24,0.121c-1.153,1.711-3.004,2.564-5.547,2.564c-2.428,0-4.388-0.725-5.878-2.176
		c-1.493-1.453-2.236-3.69-2.236-6.715V315.11c0-0.197,0.067-0.367,0.206-0.507c0.14-0.137,0.31-0.209,0.51-0.209h5.489
		c0.197,0,0.367,0.073,0.507,0.209c0.137,0.14,0.206,0.31,0.206,0.507v19.809c0,2.983,1.153,4.476,3.462,4.476
		c1.153,0,2.048-0.428,2.685-1.284c0.634-0.856,0.953-2.018,0.953-3.49V315.11C289.626,314.913,289.695,314.744,289.835,314.604"/>
	<path fill="#FFFFFF" d="M334.849,314.635c0.319,0.2,0.437,0.498,0.358,0.895l-0.956,5.547c-0.039,0.476-0.319,0.619-0.834,0.419
		c-0.555-0.158-1.074-0.24-1.551-0.24s-0.916,0.061-1.314,0.179c-1.114,0.161-2.018,0.786-2.713,1.878
		c-0.698,1.095-1.044,2.397-1.044,3.908v16.886c0,0.197-0.07,0.367-0.209,0.507c-0.14,0.14-0.309,0.209-0.507,0.209h-5.489
		c-0.2,0-0.37-0.07-0.507-0.209c-0.14-0.14-0.209-0.31-0.209-0.507V315.11c0-0.2,0.07-0.367,0.209-0.507
		c0.137-0.14,0.306-0.209,0.507-0.209h5.489c0.197,0,0.367,0.07,0.507,0.209c0.14,0.14,0.209,0.306,0.209,0.507v2.746
		c0,0.158,0.039,0.249,0.118,0.267c0.079,0.021,0.14-0.049,0.179-0.209c1.074-2.585,2.825-3.878,5.25-3.878
		C333.417,314.037,334.252,314.237,334.849,314.635"/>
	<path fill="#FFFFFF" d="M353.94,338.499c0.916-0.756,1.375-1.809,1.375-3.162v-3.402c0-0.197-0.1-0.297-0.3-0.297h-3.101
		c-1.353,0-2.446,0.37-3.283,1.105c-0.834,0.737-1.25,1.799-1.25,3.192c0,1.232,0.316,2.157,0.953,2.773s1.45,0.926,2.446,0.926
		C351.974,339.633,353.027,339.257,353.94,338.499 M359.311,316.663c1.948,1.83,2.922,4.236,2.922,7.219v20.285
		c0,0.2-0.07,0.367-0.209,0.507c-0.14,0.14-0.306,0.209-0.507,0.209h-5.486c-0.2,0-0.37-0.07-0.51-0.209
		c-0.14-0.14-0.206-0.306-0.206-0.507v-1.132c0-0.121-0.042-0.2-0.121-0.24c-0.079-0.039-0.158,0-0.237,0.118
		c-1.393,1.633-3.423,2.446-6.087,2.446c-2.267,0-4.266-0.646-5.996-1.939s-2.594-3.647-2.594-7.067
		c0-3.581,1.044-6.126,3.132-7.638c2.088-1.514,4.922-2.27,8.502-2.27h3.101c0.2,0,0.3-0.097,0.3-0.297v-1.551
		c0-1.432-0.358-2.573-1.074-3.432c-0.716-0.853-1.611-1.281-2.685-1.281c-0.834,0-1.532,0.267-2.088,0.804
		c-0.558,0.537-0.895,1.262-1.013,2.176c-0.042,0.479-0.3,0.716-0.777,0.716h-5.787c-0.479,0-0.698-0.237-0.658-0.716
		c0.2-2.701,1.262-4.87,3.192-6.5c1.93-1.633,4.345-2.446,7.249-2.446C354.814,313.92,357.36,314.833,359.311,316.663"/>
	<path fill="#FFFFFF" d="M383.592,321.019c-0.677-0.795-1.572-1.196-2.685-1.196c-1.074,0-1.939,0.401-2.594,1.196
		s-0.983,1.83-0.983,3.101v11.036c0,1.274,0.328,2.297,0.983,3.074s1.52,1.165,2.594,1.165c1.114,0,2.009-0.388,2.685-1.165
		s1.013-1.799,1.013-3.074V324.12C384.606,322.849,384.269,321.814,383.592,321.019 M389.261,316.513
		c1.472,1.733,2.206,4.087,2.206,7.07v12.053c0,3.065-0.734,5.45-2.206,7.158c-1.472,1.711-3.541,2.567-6.205,2.567
		c-0.913,0-1.848-0.17-2.804-0.507c-0.956-0.34-1.812-0.886-2.564-1.642c-0.082-0.079-0.161-0.1-0.24-0.058
		c-0.079,0.039-0.118,0.115-0.118,0.237v12.05c0,0.2-0.07,0.37-0.209,0.51s-0.31,0.206-0.507,0.206h-5.489
		c-0.2,0-0.37-0.067-0.507-0.206c-0.143-0.14-0.209-0.31-0.209-0.51v-40.33c0-0.2,0.067-0.367,0.209-0.507
		c0.137-0.14,0.306-0.209,0.507-0.209h5.489c0.197,0,0.367,0.07,0.507,0.209s0.209,0.306,0.209,0.507v0.716
		c0,0.121,0.049,0.188,0.149,0.209c0.097,0.018,0.209-0.049,0.328-0.209c1.393-1.271,3.141-1.909,5.249-1.909
		C385.72,313.918,387.789,314.783,389.261,316.513"/>
	<path fill="#FFFFFF" d="M110.79,375.837c0.14,0.14,0.209,0.31,0.209,0.507v3.52c0,0.2-0.07,0.37-0.209,0.507
		c-0.14,0.143-0.31,0.209-0.507,0.209h-3.699c-0.2,0-0.297,0.1-0.297,0.297v24.524c0,0.197-0.073,0.367-0.209,0.507
		c-0.14,0.14-0.31,0.209-0.507,0.209h-5.432c-0.197,0-0.367-0.07-0.507-0.209c-0.14-0.14-0.209-0.31-0.209-0.507v-24.524
		c0-0.197-0.097-0.297-0.297-0.297h-1.909c-0.2,0-0.367-0.067-0.507-0.209c-0.14-0.137-0.209-0.306-0.209-0.507v-3.52
		c0-0.197,0.07-0.367,0.209-0.507c0.14-0.137,0.306-0.209,0.507-0.209h1.909c0.2,0,0.297-0.097,0.297-0.297v-1.49
		c0-3.581,0.816-6.105,2.449-7.58c1.629-1.472,4.236-2.188,7.814-2.145h0.479c0.197,0,0.367,0.07,0.507,0.206
		c0.14,0.14,0.209,0.31,0.209,0.51l-0.121,4.057c0,0.197-0.07,0.367-0.209,0.507s-0.306,0.206-0.507,0.206h-0.297
		c-1.193,0.042-2.069,0.428-2.625,1.165c-0.558,0.737-0.834,1.86-0.834,3.371v1.193c0,0.2,0.097,0.297,0.297,0.297h3.699
		C110.481,375.627,110.651,375.7,110.79,375.837"/>
	<path fill="#FFFFFF" d="M133.253,375.867c0.319,0.2,0.437,0.498,0.358,0.895l-0.956,5.547c-0.039,0.476-0.319,0.619-0.834,0.419
		c-0.558-0.158-1.074-0.24-1.551-0.24s-0.916,0.061-1.314,0.182c-1.114,0.158-2.018,0.783-2.713,1.875
		c-0.698,1.095-1.044,2.397-1.044,3.908v16.886c0,0.197-0.073,0.367-0.209,0.507c-0.14,0.14-0.31,0.209-0.507,0.209h-5.489
		c-0.2,0-0.37-0.07-0.507-0.209c-0.14-0.14-0.209-0.31-0.209-0.507v-28.997c0-0.2,0.07-0.367,0.209-0.507
		c0.137-0.14,0.306-0.209,0.507-0.209h5.489c0.197,0,0.367,0.07,0.507,0.209c0.137,0.14,0.209,0.306,0.209,0.507v2.746
		c0,0.158,0.036,0.249,0.118,0.267c0.079,0.021,0.14-0.049,0.179-0.209c1.074-2.585,2.822-3.878,5.25-3.878
		C131.82,375.269,132.655,375.47,133.253,375.867"/>
	<path fill="#FFFFFF" d="M152.343,399.731c0.916-0.756,1.375-1.809,1.375-3.162v-3.402c0-0.197-0.1-0.297-0.3-0.297h-3.101
		c-1.353,0-2.446,0.37-3.28,1.105c-0.837,0.737-1.253,1.799-1.253,3.192c0,1.232,0.316,2.157,0.953,2.773
		c0.637,0.616,1.453,0.926,2.446,0.926C150.376,400.866,151.429,400.49,152.343,399.731 M157.714,377.896
		c1.948,1.83,2.922,4.236,2.922,7.219V405.4c0,0.2-0.07,0.367-0.206,0.507c-0.14,0.14-0.31,0.209-0.507,0.209h-5.489
		c-0.2,0-0.37-0.07-0.51-0.209c-0.14-0.14-0.206-0.306-0.206-0.507v-1.132c0-0.121-0.042-0.2-0.121-0.24
		c-0.079-0.039-0.158,0-0.237,0.118c-1.393,1.633-3.423,2.446-6.087,2.446c-2.267,0-4.266-0.646-5.996-1.939
		s-2.594-3.647-2.594-7.07c0-3.578,1.044-6.123,3.132-7.635c2.088-1.514,4.922-2.27,8.502-2.27h3.101c0.2,0,0.3-0.097,0.3-0.297
		v-1.551c0-1.432-0.358-2.573-1.074-3.432c-0.716-0.853-1.611-1.281-2.685-1.281c-0.834,0-1.532,0.267-2.088,0.804
		c-0.558,0.537-0.895,1.262-1.013,2.176c-0.042,0.479-0.3,0.716-0.777,0.716h-5.787c-0.479,0-0.698-0.237-0.658-0.716
		c0.2-2.701,1.262-4.87,3.192-6.503c1.93-1.629,4.345-2.443,7.249-2.443C153.22,375.153,155.762,376.066,157.714,377.896"/>
	<path fill="#FFFFFF" d="M187.514,377.746c1.332,1.73,2,4.187,2,7.367v20.288c0,0.197-0.07,0.367-0.209,0.507
		c-0.14,0.14-0.31,0.209-0.507,0.209h-5.489c-0.2,0-0.37-0.07-0.507-0.209c-0.14-0.14-0.209-0.31-0.209-0.507V385.65
		c0-1.432-0.297-2.543-0.895-3.341c-0.598-0.795-1.453-1.193-2.564-1.193c-1.156,0-2.051,0.419-2.685,1.253
		c-0.637,0.834-0.956,1.988-0.956,3.459V405.4c0,0.197-0.07,0.367-0.209,0.507s-0.306,0.209-0.507,0.209h-5.489
		c-0.197,0-0.367-0.07-0.507-0.209s-0.209-0.31-0.209-0.507v-29.057c0-0.2,0.07-0.367,0.209-0.507c0.14-0.14,0.31-0.209,0.507-0.209
		h5.489c0.2,0,0.367,0.07,0.507,0.209c0.14,0.14,0.209,0.306,0.209,0.507v1.193c0,0.121,0.049,0.191,0.149,0.209
		c0.1,0.021,0.209-0.049,0.328-0.209c1.353-1.59,3.244-2.385,5.668-2.385C184.222,375.151,186.182,376.016,187.514,377.746"/>
	<path fill="#FFFFFF" d="M200.103,403.967c-1.89-1.751-2.834-4.118-2.834-7.097v-12.056c0-2.901,0.944-5.237,2.834-7.009
		c1.887-1.769,4.464-2.655,7.726-2.655s5.847,0.865,7.756,2.594c1.909,1.733,2.864,3.93,2.864,6.594v0.837
		c0,0.197-0.07,0.367-0.209,0.507c-0.14,0.14-0.306,0.209-0.507,0.209l-5.489,0.237c-0.476,0-0.716-0.237-0.716-0.716v-0.598
		c0-0.992-0.349-1.857-1.044-2.594c-0.695-0.734-1.581-1.102-2.655-1.102s-1.948,0.394-2.625,1.193
		c-0.677,0.795-1.014,1.809-1.014,3.043v11.036c0,1.235,0.337,2.248,1.014,3.043s1.551,1.193,2.625,1.193s1.96-0.367,2.655-1.105
		c0.695-0.734,1.044-1.617,1.044-2.652v-0.598c0-0.2,0.07-0.367,0.209-0.507s0.306-0.209,0.507-0.209l5.489,0.058
		c0.2,0,0.367,0.07,0.507,0.209c0.14,0.14,0.209,0.31,0.209,0.507v1.074c0,2.746-0.956,4.961-2.864,6.654
		c-1.909,1.69-4.494,2.534-7.756,2.534S201.991,405.718,200.103,403.967"/>
	<path fill="#FFFFFF" d="M238.765,399.404c0.695-0.774,1.044-1.799,1.044-3.074v-10.975c0-1.235-0.349-2.248-1.044-3.043
		c-0.698-0.798-1.602-1.193-2.716-1.193s-2.009,0.385-2.685,1.162c-0.677,0.777-1.013,1.799-1.013,3.074v10.975
		c0,1.274,0.337,2.3,1.013,3.074s1.572,1.162,2.685,1.162S238.067,400.177,238.765,399.404 M228.263,403.967
		c-1.89-1.751-2.834-4.118-2.834-7.097v-11.995c0-2.943,0.956-5.298,2.864-7.07c1.909-1.769,4.494-2.655,7.756-2.655
		c3.301,0,5.905,0.886,7.817,2.655c1.909,1.772,2.861,4.127,2.861,7.07v11.995c0,2.98-0.944,5.347-2.834,7.097
		c-1.887,1.751-4.503,2.625-7.844,2.625C232.748,406.592,230.151,405.718,228.263,403.967"/>
	<path fill="#FFFFFF" d="M268.087,382.252c-0.677-0.795-1.572-1.196-2.685-1.196c-1.074,0-1.939,0.401-2.594,1.196
		s-0.983,1.83-0.983,3.101v11.036c0,1.274,0.328,2.297,0.983,3.074s1.52,1.165,2.594,1.165c1.114,0,2.009-0.388,2.685-1.165
		s1.013-1.799,1.013-3.074v-11.036C269.1,384.081,268.764,383.047,268.087,382.252 M273.755,377.746
		c1.472,1.73,2.209,4.087,2.209,7.07v12.053c0,3.065-0.737,5.45-2.209,7.158c-1.472,1.711-3.541,2.567-6.205,2.567
		c-0.913,0-1.848-0.17-2.804-0.507c-0.956-0.34-1.812-0.886-2.564-1.642c-0.082-0.079-0.161-0.1-0.24-0.058
		c-0.079,0.039-0.118,0.115-0.118,0.237v12.05c0,0.2-0.07,0.37-0.209,0.51c-0.14,0.14-0.309,0.206-0.507,0.206h-5.489
		c-0.2,0-0.37-0.067-0.507-0.206c-0.14-0.14-0.209-0.31-0.209-0.51v-40.33c0-0.2,0.07-0.367,0.209-0.507
		c0.137-0.14,0.306-0.209,0.507-0.209h5.489c0.197,0,0.367,0.07,0.507,0.209c0.14,0.14,0.209,0.306,0.209,0.507v0.716
		c0,0.121,0.049,0.188,0.149,0.209c0.097,0.018,0.209-0.049,0.328-0.209c1.393-1.271,3.141-1.909,5.25-1.909
		C270.214,375.151,272.284,376.016,273.755,377.746"/>
	<path fill="#FFFFFF" d="M302.9,377.746c1.332,1.73,2,4.187,2,7.367v20.288c0,0.197-0.07,0.367-0.209,0.507
		c-0.14,0.14-0.31,0.209-0.507,0.209h-5.489c-0.2,0-0.37-0.07-0.507-0.209c-0.14-0.14-0.209-0.31-0.209-0.507V385.65
		c0-1.432-0.297-2.543-0.895-3.341c-0.598-0.795-1.453-1.193-2.564-1.193c-1.156,0-2.051,0.419-2.685,1.253
		c-0.637,0.834-0.956,1.988-0.956,3.459V405.4c0,0.197-0.07,0.367-0.209,0.507s-0.306,0.209-0.507,0.209h-5.489
		c-0.2,0-0.367-0.07-0.507-0.209c-0.14-0.14-0.209-0.31-0.209-0.507v-40.333c0-0.197,0.07-0.367,0.209-0.507
		c0.14-0.14,0.306-0.209,0.507-0.209h5.489c0.2,0,0.367,0.07,0.507,0.209c0.14,0.14,0.209,0.309,0.209,0.507v12.468
		c0,0.121,0.049,0.191,0.149,0.209c0.1,0.021,0.209-0.049,0.328-0.209c1.353-1.59,3.244-2.385,5.668-2.385
		C299.608,375.151,301.568,376.016,302.9,377.746"/>
	<path fill="#FFFFFF" d="M325.991,399.404c0.695-0.774,1.044-1.799,1.044-3.074v-10.975c0-1.235-0.349-2.248-1.044-3.043
		c-0.698-0.798-1.602-1.193-2.716-1.193s-2.009,0.385-2.685,1.162c-0.677,0.777-1.013,1.799-1.013,3.074v10.975
		c0,1.274,0.337,2.3,1.013,3.074c0.677,0.774,1.572,1.162,2.685,1.162C324.388,400.566,325.293,400.177,325.991,399.404
		 M315.488,403.967c-1.89-1.751-2.834-4.118-2.834-7.097v-11.995c0-2.943,0.956-5.298,2.864-7.07
		c1.909-1.769,4.494-2.655,7.756-2.655c3.301,0,5.905,0.886,7.817,2.655c1.909,1.772,2.861,4.127,2.861,7.07v11.995
		c0,2.98-0.944,5.347-2.834,7.097c-1.887,1.751-4.503,2.625-7.844,2.625C319.973,406.592,317.376,405.718,315.488,403.967"/>
	<path fill="#FFFFFF" d="M360.831,377.746c1.332,1.73,2,4.187,2,7.367v20.288c0,0.197-0.07,0.367-0.209,0.507
		s-0.31,0.209-0.507,0.209h-5.489c-0.2,0-0.37-0.07-0.507-0.209c-0.14-0.14-0.209-0.31-0.209-0.507V385.65
		c0-1.432-0.297-2.543-0.895-3.341c-0.598-0.795-1.453-1.193-2.564-1.193c-1.156,0-2.051,0.419-2.685,1.253
		c-0.637,0.834-0.956,1.988-0.956,3.459V405.4c0,0.197-0.07,0.367-0.209,0.507s-0.306,0.209-0.507,0.209h-5.489
		c-0.197,0-0.367-0.07-0.507-0.209s-0.209-0.31-0.209-0.507v-29.057c0-0.2,0.07-0.367,0.209-0.507c0.14-0.14,0.31-0.209,0.507-0.209
		h5.489c0.2,0,0.367,0.07,0.507,0.209c0.14,0.14,0.209,0.306,0.209,0.507v1.193c0,0.121,0.049,0.191,0.149,0.209
		c0.1,0.021,0.209-0.049,0.328-0.209c1.353-1.59,3.244-2.385,5.668-2.385C357.539,375.151,359.499,376.016,360.831,377.746"/>
	<path fill="#FFFFFF" d="M378.523,382.309c-0.677,0.798-1.017,1.812-1.017,3.044v2.685c0,0.2,0.1,0.297,0.3,0.297h6.739
		c0.2,0,0.3-0.097,0.3-0.297v-2.685c0-1.271-0.34-2.294-1.017-3.071s-1.572-1.165-2.682-1.165
		C380.073,381.116,379.197,381.514,378.523,382.309 M391.498,393.199c-0.14,0.14-0.31,0.209-0.507,0.209h-13.184
		c-0.2,0-0.3,0.1-0.3,0.297v2.685c0,1.232,0.34,2.245,1.017,3.043c0.674,0.795,1.551,1.193,2.625,1.193
		c0.913,0,1.699-0.288,2.355-0.865c0.658-0.577,1.083-1.323,1.284-2.239c0.118-0.394,0.379-0.595,0.777-0.595l5.31,0.237
		c0.197,0,0.367,0.07,0.507,0.209c0.137,0.14,0.188,0.328,0.149,0.567c-0.279,2.783-1.293,4.922-3.043,6.415
		c-1.751,1.49-4.197,2.236-7.337,2.236c-3.262,0-5.838-0.865-7.729-2.594c-1.887-1.733-2.831-4.087-2.831-7.07v-12.113
		c0-2.901,0.944-5.24,2.831-7.009c1.89-1.769,4.467-2.655,7.729-2.655c3.259,0,5.835,0.886,7.726,2.655
		c1.887,1.769,2.834,4.109,2.834,7.009v7.877C391.707,392.89,391.638,393.06,391.498,393.199"/>
</g>
<g>
	<polygon fill="#FFFFFF" points="174.066,-1650.615 174.066,-1587.93 194.962,-1587.93 194.962,-1629.719 215.856,-1629.719 
		215.856,-1650.615 	"/>
	<polygon fill="#FFFFFF" points="226.316,-1587.931 226.316,-1650.615 289,-1650.615 289,-1587.931 268.106,-1587.931 
		268.106,-1629.719 247.21,-1629.719 247.21,-1608.825 268.106,-1608.825 247.21,-1587.931 	"/>
	<path fill="#FFFFFF" d="M341.249-1629.72h-20.894v20.894h20.894V-1629.72z M299.46-1567.036v-83.579h41.789l20.896,20.894v41.79
		h-41.79v20.894H299.46z"/>
	<polygon fill="#FFFFFF" points="372.605,-1587.931 372.605,-1608.825 393.499,-1608.825 393.499,-1650.615 435.289,-1650.615 
		435.289,-1629.719 414.393,-1629.719 414.393,-1587.931 	"/>
	<path fill="#FFFFFF" d="M487.537-1629.719h-20.894v20.894h20.894V-1629.719z M445.749-1587.931v-41.789l20.894-20.896h41.79v41.79
		l-20.896,20.894H445.749z"/>
	<path fill="#FFFFFF" d="M539.788-1629.72h20.894v20.894h-20.894V-1629.72z M560.682-1671.509v20.894h-20.894l-20.894,20.894v41.79
		h62.683v-83.579H560.682z"/>
	<path fill="#FFFFFF" d="M644.261-1629.719h20.896v20.894h-20.896V-1629.719z M644.261-1650.615l-20.894,20.896v41.789h62.683
		v-20.896h-20.893l20.893-20.893v-20.896H644.261z"/>
	<rect x="592.037" y="-1619.26" fill="#FFFFFF" width="20.894" height="31.329"/>
	<path fill="#00FFBF" d="M613.66-1639.441c0,6.176-5.004,11.175-11.179,11.175c-6.172,0-11.172-4.999-11.172-11.175
		c0-6.172,5-11.174,11.172-11.174C608.656-1650.615,613.66-1645.613,613.66-1639.441"/>
	<path fill="#FFFFFF" d="M668.465-1572.083c0.65,0,1.171,0.227,1.565,0.68c0.394,0.452,0.59,1.032,0.59,1.741v1.563
		c0,0.079-0.039,0.118-0.117,0.118h-4.045c-0.078,0-0.117-0.039-0.117-0.118v-1.563c0-0.709,0.196-1.289,0.59-1.741
		C667.325-1571.857,667.836-1572.083,668.465-1572.083 M673.423-1565.915v-3.925c0-1.396-0.442-2.527-1.328-3.394
		c-0.884-0.865-2.094-1.299-3.63-1.299c-1.515,0-2.72,0.434-3.615,1.299c-0.894,0.867-1.343,1.997-1.343,3.394v6.139
		c0,1.417,0.449,2.548,1.343,3.394c0.896,0.847,2.101,1.27,3.615,1.27c1.437,0,2.572-0.36,3.41-1.077
		c0.836-0.719,1.323-1.717,1.461-2.997c0.019-0.078,0.005-0.147-0.045-0.206c-0.049-0.06-0.123-0.089-0.22-0.089l-2.185-0.118
		c-0.157,0-0.266,0.079-0.324,0.237c-0.099,0.531-0.335,0.964-0.708,1.299c-0.374,0.334-0.837,0.5-1.388,0.5
		c-0.628,0-1.14-0.225-1.534-0.679c-0.394-0.452-0.59-1.032-0.59-1.741v-1.592c0-0.079,0.039-0.118,0.117-0.118h6.67
		C673.324-1565.619,673.423-1565.718,673.423-1565.915 M657.014-1574.504c-1.28,0-2.273,0.434-2.981,1.299
		c-0.04,0.06-0.079,0.084-0.118,0.075c-0.039-0.01-0.058-0.034-0.058-0.075v-0.797c0-0.196-0.099-0.295-0.296-0.295h-2.242
		c-0.198,0-0.296,0.099-0.296,0.295v14.433c0,0.196,0.099,0.295,0.296,0.295h2.242c0.198,0,0.296-0.099,0.296-0.295v-9.769
		c0.019,0,0.029-0.058,0.029-0.177c0.039-0.807,0.24-1.432,0.604-1.874c0.364-0.444,0.871-0.664,1.521-0.664
		c0.628,0,1.121,0.227,1.476,0.679c0.353,0.452,0.531,1.092,0.531,1.918v9.887c0,0.196,0.097,0.295,0.295,0.295h2.244
		c0.196,0,0.295-0.099,0.295-0.295v-10.124c0-1.534-0.33-2.72-0.99-3.556C659.203-1574.084,658.253-1574.504,657.014-1574.504
		 M643.231-1561.517c-0.628,0-1.145-0.22-1.549-0.664c-0.403-0.442-0.606-1.027-0.606-1.756v-5.725c0-0.709,0.203-1.289,0.606-1.741
		c0.403-0.453,0.92-0.68,1.549-0.68c0.63,0,1.152,0.227,1.565,0.68c0.413,0.452,0.62,1.032,0.62,1.741v5.725
		c0,0.729-0.207,1.314-0.62,1.756C644.383-1561.738,643.861-1561.517,643.231-1561.517 M643.231-1559.037
		c1.536,0,2.755-0.428,3.661-1.285c0.904-0.855,1.357-1.992,1.357-3.408v-6.11c0-1.396-0.454-2.527-1.357-3.394
		c-0.906-0.865-2.125-1.299-3.661-1.299c-1.515,0-2.725,0.434-3.63,1.299c-0.904,0.867-1.357,1.997-1.357,3.394v6.11
		c0,1.416,0.447,2.553,1.343,3.408C640.482-1559.465,641.697-1559.037,643.231-1559.037 M631.751-1574.504
		c-1.28,0-2.273,0.434-2.981,1.299c-0.04,0.06-0.079,0.084-0.118,0.075c-0.04-0.01-0.058-0.034-0.058-0.075v-6.434
		c0-0.196-0.099-0.295-0.296-0.295h-2.242c-0.198,0-0.296,0.099-0.296,0.295v20.07c0,0.196,0.099,0.295,0.296,0.295h2.242
		c0.198,0,0.296-0.099,0.296-0.295v-9.769c0.018,0,0.029-0.058,0.029-0.177c0.039-0.807,0.24-1.432,0.604-1.874
		c0.364-0.444,0.871-0.664,1.521-0.664c0.629,0,1.121,0.227,1.476,0.679c0.353,0.452,0.531,1.092,0.531,1.918v9.887
		c0,0.196,0.097,0.295,0.295,0.295h2.242c0.198,0,0.296-0.099,0.296-0.295v-10.124c0-1.534-0.33-2.72-0.99-3.556
		C633.94-1574.084,632.99-1574.504,631.751-1574.504 M620.153-1569.662v5.754c0,0.71-0.202,1.289-0.606,1.741
		c-0.403,0.454-0.92,0.679-1.549,0.679c-0.611,0-1.113-0.225-1.506-0.679c-0.394-0.452-0.59-1.032-0.59-1.741v-5.754
		c0-0.709,0.196-1.289,0.59-1.741c0.394-0.453,0.896-0.68,1.506-0.68c0.628,0,1.145,0.227,1.549,0.68
		C619.951-1570.951,620.153-1570.371,620.153-1569.662 M618.765-1574.533c-0.471,0-0.944,0.084-1.416,0.251
		c-0.473,0.167-0.896,0.428-1.27,0.782c-0.039,0.039-0.078,0.055-0.118,0.044c-0.039-0.01-0.058-0.034-0.058-0.073v-0.473
		c0-0.196-0.099-0.295-0.295-0.295h-2.243c-0.198,0-0.295,0.099-0.295,0.295v20.07c0,0.196,0.097,0.295,0.295,0.295h2.243
		c0.196,0,0.295-0.099,0.295-0.295v-6.139c0-0.099,0.049-0.118,0.147-0.058c0.374,0.373,0.802,0.648,1.285,0.826
		c0.481,0.177,0.959,0.266,1.43,0.266c1.28,0,2.297-0.418,3.055-1.255c0.758-0.836,1.137-1.981,1.137-3.437v-6.139
		c0-1.396-0.379-2.524-1.137-3.379C621.062-1574.105,620.045-1574.533,618.765-1574.533 M605.131-1561.517
		c-0.63,0-1.147-0.22-1.55-0.664c-0.403-0.442-0.604-1.027-0.604-1.756v-5.725c0-0.709,0.201-1.289,0.604-1.741
		c0.403-0.453,0.92-0.68,1.55-0.68c0.629,0,1.15,0.227,1.563,0.68c0.413,0.452,0.62,1.032,0.62,1.741v5.725
		c0,0.729-0.207,1.314-0.62,1.756C606.281-1561.738,605.759-1561.517,605.131-1561.517 M605.131-1559.037
		c1.534,0,2.754-0.428,3.659-1.285c0.905-0.855,1.357-1.992,1.357-3.408v-6.11c0-1.396-0.452-2.527-1.357-3.394
		c-0.905-0.865-2.125-1.299-3.659-1.299c-1.516,0-2.726,0.434-3.63,1.299c-0.905,0.867-1.357,1.997-1.357,3.394v6.11
		c0,1.416,0.447,2.553,1.343,3.408C602.38-1559.465,603.595-1559.037,605.131-1559.037 M592.912-1559.037
		c1.515,0,2.725-0.408,3.63-1.225c0.904-0.816,1.357-1.865,1.357-3.144v-0.442c0-0.196-0.099-0.295-0.295-0.295l-2.243-0.031
		c-0.198,0-0.295,0.099-0.295,0.297v0.295c0,0.57-0.207,1.063-0.62,1.476c-0.413,0.413-0.925,0.619-1.534,0.619
		c-0.63,0-1.142-0.225-1.536-0.679c-0.394-0.452-0.59-1.032-0.59-1.741v-5.754c0-0.709,0.196-1.289,0.59-1.741
		c0.394-0.453,0.905-0.68,1.536-0.68c0.609,0,1.121,0.207,1.534,0.62c0.413,0.413,0.62,0.906,0.62,1.476v0.295
		c0,0.198,0.097,0.297,0.295,0.297l2.243-0.089c0.196,0,0.295-0.099,0.295-0.295v-0.384c0-0.826-0.202-1.57-0.606-2.229
		c-0.403-0.659-0.983-1.181-1.741-1.563c-0.756-0.384-1.638-0.577-2.64-0.577c-1.516,0-2.721,0.434-3.615,1.299
		c-0.896,0.867-1.343,1.997-1.343,3.394v6.11c0,1.437,0.447,2.577,1.343,3.423C590.191-1559.46,591.396-1559.037,592.912-1559.037
		 M581.462-1574.504c-1.28,0-2.273,0.434-2.982,1.299c-0.039,0.06-0.078,0.084-0.118,0.075c-0.039-0.01-0.058-0.034-0.058-0.075
		v-0.797c0-0.196-0.099-0.295-0.295-0.295h-2.244c-0.198,0-0.295,0.099-0.295,0.295v14.433c0,0.196,0.097,0.295,0.295,0.295h2.244
		c0.196,0,0.295-0.099,0.295-0.295v-9.769c0.019,0,0.029-0.058,0.029-0.177c0.039-0.807,0.241-1.432,0.606-1.874
		c0.363-0.444,0.87-0.664,1.519-0.664c0.63,0,1.121,0.227,1.476,0.679c0.355,0.452,0.531,1.092,0.531,1.918v9.887
		c0,0.196,0.099,0.295,0.295,0.295h2.243c0.196,0,0.295-0.099,0.295-0.295v-10.124c0-1.534-0.329-2.72-0.988-3.556
		C583.65-1574.084,582.701-1574.504,581.462-1574.504 M567.265-1561.517c-0.591,0-1.063-0.177-1.417-0.531
		c-0.353-0.353-0.531-0.884-0.531-1.594c0-0.805,0.236-1.421,0.709-1.843c0.471-0.423,1.102-0.635,1.889-0.635h1.8
		c0.079,0,0.118,0.039,0.118,0.118v2.007c0,0.787-0.256,1.396-0.768,1.829C568.553-1561.733,567.954-1561.517,567.265-1561.517
		 M567.768-1574.533c-1.34,0-2.461,0.394-3.364,1.181c-0.905,0.787-1.408,1.811-1.506,3.07c0,0.196,0.099,0.295,0.296,0.295h2.389
		c0.198,0,0.296-0.099,0.296-0.295c0.058-0.531,0.254-0.964,0.59-1.299c0.334-0.334,0.747-0.502,1.239-0.502
		c0.63,0,1.142,0.251,1.536,0.753c0.392,0.502,0.59,1.166,0.59,1.992v0.855c0,0.079-0.039,0.118-0.118,0.118h-1.712
		c-1.672,0-3.024,0.399-4.058,1.196c-1.034,0.797-1.549,2.051-1.549,3.763c0,1.634,0.428,2.77,1.283,3.41
		c0.857,0.638,1.845,0.959,2.966,0.959c1.338,0,2.352-0.413,3.04-1.239c0.039-0.04,0.073-0.05,0.104-0.031
		c0.029,0.021,0.044,0.05,0.044,0.089v0.65c0,0.196,0.099,0.295,0.295,0.295h2.243c0.196,0,0.295-0.099,0.295-0.295v-10.035
		c0-1.476-0.457-2.666-1.372-3.572C570.379-1574.079,569.203-1574.533,567.768-1574.533 M559.74-1574.444
		c-1.26,0-2.174,0.727-2.746,2.184c-0.019,0.06-0.044,0.084-0.073,0.074c-0.029-0.01-0.044-0.045-0.044-0.104v-1.712
		c0-0.196-0.099-0.295-0.296-0.295h-2.242c-0.198,0-0.296,0.099-0.296,0.295v14.433c0,0.196,0.099,0.295,0.296,0.295h2.242
		c0.198,0,0.296-0.099,0.296-0.295v-8.618c0-0.867,0.201-1.604,0.604-2.214c0.403-0.609,0.91-0.944,1.519-1.003
		c0.237-0.04,0.413-0.06,0.531-0.06c0.296,0,0.57,0.05,0.828,0.147c0.215,0.06,0.334,0,0.353-0.177l0.442-2.244
		c0.04-0.177-0.01-0.305-0.147-0.384C560.655-1574.335,560.23-1574.444,559.74-1574.444 M549.144-1575.093
		c0-0.886,0.147-1.539,0.442-1.963c0.296-0.423,0.768-0.633,1.417-0.633h0.295c0.196,0,0.295-0.099,0.295-0.295l0.06-1.801
		c0-0.196-0.099-0.295-0.295-0.295h-0.384c-1.634,0-2.814,0.379-3.543,1.136c-0.727,0.758-1.092,2.012-1.092,3.763v0.768
		c0,0.079-0.039,0.118-0.118,0.118h-1.092c-0.196,0-0.295,0.099-0.295,0.295v1.476c0,0.198,0.099,0.295,0.295,0.295h1.092
		c0.079,0,0.118,0.04,0.118,0.118v12.544c0,0.196,0.099,0.295,0.295,0.295h2.214c0.196,0,0.295-0.099,0.295-0.295v-12.544
		c0-0.078,0.039-0.118,0.118-0.118h2.065c0.198,0,0.296-0.097,0.296-0.295v-1.476c0-0.196-0.099-0.295-0.296-0.295h-2.065
		c-0.079,0-0.118-0.039-0.118-0.118V-1575.093z M534.122-1569.662v5.754c0,0.71-0.201,1.289-0.604,1.741
		c-0.403,0.454-0.92,0.679-1.55,0.679c-0.609,0-1.111-0.225-1.505-0.679c-0.394-0.452-0.59-1.032-0.59-1.741v-5.754
		c0-0.709,0.196-1.289,0.59-1.741c0.394-0.453,0.896-0.68,1.505-0.68c0.63,0,1.147,0.227,1.55,0.68
		C533.921-1570.951,534.122-1570.371,534.122-1569.662 M532.735-1574.533c-0.473,0-0.944,0.084-1.417,0.251
		c-0.471,0.167-0.896,0.428-1.268,0.782c-0.04,0.039-0.079,0.055-0.118,0.044c-0.041-0.01-0.058-0.034-0.058-0.073v-0.473
		c0-0.196-0.099-0.295-0.296-0.295h-2.242c-0.198,0-0.296,0.099-0.296,0.295v20.07c0,0.196,0.099,0.295,0.296,0.295h2.242
		c0.198,0,0.296-0.099,0.296-0.295v-6.139c0-0.099,0.049-0.118,0.147-0.058c0.373,0.373,0.8,0.648,1.283,0.826
		c0.483,0.177,0.959,0.266,1.432,0.266c1.278,0,2.297-0.418,3.055-1.255c0.756-0.836,1.135-1.981,1.135-3.437v-6.139
		c0-1.396-0.379-2.524-1.135-3.379C535.032-1574.105,534.013-1574.533,532.735-1574.533 M518.686-1561.517
		c-0.59,0-1.063-0.177-1.416-0.531c-0.355-0.353-0.531-0.884-0.531-1.594c0-0.805,0.237-1.421,0.708-1.843
		c0.473-0.423,1.102-0.635,1.889-0.635h1.801c0.078,0,0.118,0.039,0.118,0.118v2.007c0,0.787-0.256,1.396-0.768,1.829
		C519.976-1561.733,519.375-1561.517,518.686-1561.517 M519.188-1574.533c-1.338,0-2.459,0.394-3.364,1.181
		c-0.906,0.787-1.408,1.811-1.505,3.07c0,0.196,0.097,0.295,0.295,0.295h2.391c0.196,0,0.295-0.099,0.295-0.295
		c0.058-0.531,0.256-0.964,0.59-1.299c0.335-0.334,0.748-0.502,1.241-0.502c0.628,0,1.14,0.251,1.534,0.753
		c0.394,0.502,0.591,1.166,0.591,1.992v0.855c0,0.079-0.041,0.118-0.118,0.118h-1.712c-1.673,0-3.026,0.399-4.058,1.196
		c-1.033,0.797-1.55,2.051-1.55,3.763c0,1.634,0.428,2.77,1.285,3.41c0.855,0.638,1.843,0.959,2.966,0.959
		c1.338,0,2.35-0.413,3.039-1.239c0.04-0.04,0.075-0.05,0.104-0.031c0.029,0.021,0.045,0.05,0.045,0.089v0.65
		c0,0.196,0.097,0.295,0.295,0.295h2.242c0.198,0,0.296-0.099,0.296-0.295v-10.035c0-1.476-0.458-2.666-1.374-3.572
		C521.801-1574.079,520.625-1574.533,519.188-1574.533 M511.161-1574.444c-1.259,0-2.174,0.727-2.744,2.184
		c-0.019,0.06-0.044,0.084-0.074,0.074c-0.029-0.01-0.044-0.045-0.044-0.104v-1.712c0-0.196-0.099-0.295-0.295-0.295h-2.243
		c-0.196,0-0.295,0.099-0.295,0.295v14.433c0,0.196,0.099,0.295,0.295,0.295h2.243c0.196,0,0.295-0.099,0.295-0.295v-8.618
		c0-0.867,0.201-1.604,0.606-2.214c0.402-0.609,0.909-0.944,1.519-1.003c0.237-0.04,0.413-0.06,0.531-0.06
		c0.295,0,0.57,0.05,0.826,0.147c0.215,0.06,0.334,0,0.355-0.177l0.442-2.244c0.039-0.177-0.01-0.305-0.147-0.384
		C512.076-1574.335,511.653-1574.444,511.161-1574.444 M493.631-1574.001v9.769c0,0.845-0.183,1.51-0.546,1.992
		c-0.364,0.483-0.881,0.723-1.55,0.723c-1.338,0-2.007-0.846-2.007-2.538v-9.946c0-0.196-0.099-0.295-0.295-0.295h-2.243
		c-0.196,0-0.295,0.099-0.295,0.295v10.566c0,1.476,0.364,2.572,1.092,3.292c0.729,0.718,1.683,1.077,2.864,1.077
		c1.297,0,2.242-0.463,2.833-1.388c0.039-0.039,0.073-0.058,0.104-0.058c0.029,0,0.044,0.029,0.044,0.087v0.857
		c0,0.196,0.099,0.295,0.295,0.295h2.243c0.196,0,0.295-0.099,0.295-0.295v-14.433c0-0.196-0.099-0.295-0.295-0.295h-2.243
		C493.729-1574.296,493.631-1574.197,493.631-1574.001 M478.785-1561.488c-0.63,0-1.147-0.225-1.549-0.679
		c-0.403-0.452-0.606-1.032-0.606-1.741v-5.754c0-0.709,0.202-1.289,0.606-1.741c0.402-0.453,0.918-0.68,1.549-0.68
		c0.551,0,1.019,0.183,1.403,0.547c0.384,0.363,0.614,0.841,0.693,1.43v6.641c-0.079,0.59-0.309,1.068-0.693,1.43
		C479.804-1561.67,479.336-1561.488,478.785-1561.488 M480.881-1579.638v6.11c0,0.039-0.015,0.068-0.045,0.087
		c-0.029,0.021-0.063,0.011-0.102-0.029c-0.374-0.353-0.797-0.619-1.27-0.797c-0.471-0.177-0.944-0.266-1.416-0.266
		c-1.299,0-2.328,0.418-3.084,1.255c-0.758,0.836-1.137,1.981-1.137,3.437v6.139c0,1.398,0.379,2.524,1.137,3.379
		c0.756,0.857,1.785,1.285,3.084,1.285c0.471,0,0.944-0.089,1.416-0.266c0.473-0.178,0.896-0.444,1.27-0.797
		c0.039-0.039,0.073-0.049,0.102-0.029c0.031,0.019,0.045,0.049,0.045,0.087v0.473c0,0.196,0.097,0.295,0.295,0.295h2.243
		c0.196,0,0.295-0.099,0.295-0.295v-20.07c0-0.196-0.099-0.295-0.295-0.295h-2.243
		C480.978-1579.933,480.881-1579.834,480.881-1579.638 M459.985-1561.517c-0.59,0-1.063-0.177-1.416-0.531
		c-0.355-0.353-0.531-0.884-0.531-1.594c0-0.805,0.237-1.421,0.708-1.843c0.473-0.423,1.102-0.635,1.889-0.635h1.801
		c0.078,0,0.117,0.039,0.117,0.118v2.007c0,0.787-0.256,1.396-0.766,1.829C461.274-1561.733,460.673-1561.517,459.985-1561.517
		 M460.487-1574.533c-1.338,0-2.459,0.394-3.364,1.181s-1.408,1.811-1.505,3.07c0,0.196,0.097,0.295,0.295,0.295h2.391
		c0.196,0,0.295-0.099,0.295-0.295c0.058-0.531,0.256-0.964,0.59-1.299c0.335-0.334,0.748-0.502,1.241-0.502
		c0.628,0,1.14,0.251,1.534,0.753c0.394,0.502,0.59,1.166,0.59,1.992v0.855c0,0.079-0.039,0.118-0.117,0.118h-1.712
		c-1.673,0-3.026,0.399-4.058,1.196c-1.033,0.797-1.55,2.051-1.55,3.763c0,1.634,0.428,2.77,1.285,3.41
		c0.855,0.638,1.843,0.959,2.966,0.959c1.338,0,2.35-0.413,3.039-1.239c0.041-0.04,0.075-0.05,0.104-0.031
		c0.029,0.021,0.044,0.05,0.044,0.089v0.65c0,0.196,0.099,0.295,0.296,0.295h2.242c0.198,0,0.296-0.099,0.296-0.295v-10.035
		c0-1.476-0.458-2.666-1.374-3.572C463.1-1574.079,461.924-1574.533,460.487-1574.533 M453.404-1572.526v-1.476
		c0-0.196-0.099-0.295-0.295-0.295h-2.065c-0.079,0-0.118-0.039-0.118-0.118v-3.335c0-0.196-0.099-0.295-0.295-0.295h-2.154
		c-0.198,0-0.296,0.099-0.296,0.295v3.335c0,0.079-0.039,0.118-0.117,0.118h-1.152c-0.198,0-0.295,0.099-0.295,0.295v1.476
		c0,0.198,0.097,0.295,0.295,0.295h1.152c0.078,0,0.117,0.04,0.117,0.118v9.298c0,1.377,0.321,2.311,0.961,2.802
		c0.638,0.492,1.587,0.739,2.848,0.739h0.915c0.196,0,0.295-0.099,0.295-0.295v-1.889c0-0.198-0.099-0.295-0.295-0.295h-0.266
		c-0.591,0.019-1.024-0.123-1.299-0.429c-0.275-0.305-0.413-0.85-0.413-1.638v-8.294c0-0.078,0.039-0.118,0.118-0.118h2.065
		C453.305-1572.231,453.404-1572.328,453.404-1572.526 M439.327-1561.517c-0.591,0-1.063-0.177-1.417-0.531
		c-0.355-0.353-0.531-0.884-0.531-1.594c0-0.805,0.237-1.421,0.708-1.843c0.473-0.423,1.103-0.635,1.889-0.635h1.801
		c0.078,0,0.118,0.039,0.118,0.118v2.007c0,0.787-0.256,1.396-0.768,1.829C440.615-1561.733,440.016-1561.517,439.327-1561.517
		 M439.828-1574.533c-1.338,0-2.459,0.394-3.364,1.181s-1.406,1.811-1.505,3.07c0,0.196,0.099,0.295,0.295,0.295h2.391
		c0.196,0,0.295-0.099,0.295-0.295c0.06-0.531,0.256-0.964,0.591-1.299c0.334-0.334,0.747-0.502,1.239-0.502
		c0.63,0,1.14,0.251,1.534,0.753c0.394,0.502,0.591,1.166,0.591,1.992v0.855c0,0.079-0.04,0.118-0.118,0.118h-1.712
		c-1.672,0-3.024,0.399-4.058,1.196c-1.033,0.797-1.55,2.051-1.55,3.763c0,1.634,0.429,2.77,1.285,3.41
		c0.855,0.638,1.845,0.959,2.966,0.959c1.338,0,2.35-0.413,3.04-1.239c0.039-0.04,0.073-0.05,0.102-0.031
		c0.031,0.021,0.045,0.05,0.045,0.089v0.65c0,0.196,0.097,0.295,0.295,0.295h2.243c0.196,0,0.295-0.099,0.295-0.295v-10.035
		c0-1.476-0.457-2.666-1.372-3.572C442.44-1574.079,441.264-1574.533,439.828-1574.533 M426.96-1561.488
		c-0.628,0-1.145-0.225-1.549-0.679c-0.403-0.452-0.606-1.032-0.606-1.741v-5.754c0-0.709,0.202-1.289,0.606-1.741
		c0.403-0.453,0.92-0.68,1.549-0.68c0.551,0,1.019,0.183,1.403,0.547c0.384,0.363,0.614,0.841,0.693,1.43v6.641
		c-0.079,0.59-0.309,1.068-0.693,1.43C427.978-1561.67,427.51-1561.488,426.96-1561.488 M429.056-1579.638v6.11
		c0,0.039-0.015,0.068-0.044,0.087c-0.029,0.021-0.065,0.011-0.104-0.029c-0.374-0.353-0.797-0.619-1.268-0.797
		c-0.473-0.177-0.946-0.266-1.417-0.266c-1.299,0-2.328,0.418-3.084,1.255c-0.758,0.836-1.135,1.981-1.135,3.437v6.139
		c0,1.398,0.377,2.524,1.135,3.379c0.756,0.857,1.785,1.285,3.084,1.285c0.471,0,0.944-0.089,1.417-0.266
		c0.471-0.178,0.894-0.444,1.268-0.797c0.039-0.039,0.075-0.049,0.104-0.029c0.029,0.019,0.044,0.049,0.044,0.087v0.473
		c0,0.196,0.099,0.295,0.295,0.295h2.243c0.196,0,0.295-0.099,0.295-0.295v-20.07c0-0.196-0.099-0.295-0.295-0.295h-2.243
		C429.154-1579.933,429.056-1579.834,429.056-1579.638 M414.122-1572.526v-1.476c0-0.196-0.099-0.295-0.295-0.295h-2.067
		c-0.078,0-0.118-0.039-0.118-0.118v-3.335c0-0.196-0.097-0.295-0.295-0.295h-2.154c-0.196,0-0.295,0.099-0.295,0.295v3.335
		c0,0.079-0.039,0.118-0.118,0.118h-1.15c-0.198,0-0.296,0.099-0.296,0.295v1.476c0,0.198,0.099,0.295,0.296,0.295h1.15
		c0.079,0,0.118,0.04,0.118,0.118v9.298c0,1.377,0.319,2.311,0.959,2.802c0.64,0.492,1.589,0.739,2.848,0.739h0.915
		c0.196,0,0.295-0.099,0.295-0.295v-1.889c0-0.198-0.099-0.295-0.295-0.295h-0.266c-0.59,0.019-1.022-0.123-1.298-0.429
		c-0.277-0.305-0.415-0.85-0.415-1.638v-8.294c0-0.078,0.04-0.118,0.118-0.118h2.067
		C414.024-1572.231,414.122-1572.328,414.122-1572.526 M402.317-1574.001v9.769c0,0.845-0.181,1.51-0.546,1.992
		c-0.364,0.483-0.881,0.723-1.55,0.723c-1.338,0-2.005-0.846-2.005-2.538v-9.946c0-0.196-0.099-0.295-0.296-0.295h-2.242
		c-0.198,0-0.296,0.099-0.296,0.295v10.566c0,1.476,0.364,2.572,1.093,3.292c0.727,0.718,1.681,1.077,2.862,1.077
		c1.299,0,2.243-0.463,2.833-1.388c0.039-0.039,0.074-0.058,0.104-0.058s0.044,0.029,0.044,0.087v0.857
		c0,0.196,0.099,0.295,0.295,0.295h2.243c0.196,0,0.295-0.099,0.295-0.295v-14.433c0-0.196-0.099-0.295-0.295-0.295h-2.243
		C402.416-1574.296,402.317-1574.197,402.317-1574.001 M393.257-1572.526v-1.476c0-0.196-0.099-0.295-0.296-0.295h-2.065
		c-0.079,0-0.118-0.039-0.118-0.118v-3.335c0-0.196-0.099-0.295-0.295-0.295h-2.154c-0.198,0-0.295,0.099-0.295,0.295v3.335
		c0,0.079-0.04,0.118-0.118,0.118h-1.152c-0.196,0-0.295,0.099-0.295,0.295v1.476c0,0.198,0.099,0.295,0.295,0.295h1.152
		c0.078,0,0.118,0.04,0.118,0.118v9.298c0,1.377,0.319,2.311,0.959,2.802c0.638,0.492,1.589,0.739,2.848,0.739h0.915
		c0.196,0,0.295-0.099,0.295-0.295v-1.889c0-0.198-0.099-0.295-0.295-0.295h-0.266c-0.59,0.019-1.024-0.123-1.299-0.429
		c-0.275-0.305-0.413-0.85-0.413-1.638v-8.294c0-0.078,0.039-0.118,0.118-0.118h2.065
		C393.158-1572.231,393.257-1572.328,393.257-1572.526 M381.599-1559.274h2.243c0.196,0,0.295-0.099,0.295-0.295v-14.433
		c0-0.196-0.099-0.295-0.295-0.295h-2.243c-0.198,0-0.295,0.099-0.295,0.295v14.433
		C381.304-1559.373,381.402-1559.274,381.599-1559.274 M382.691-1576.658c0.551,0,1.004-0.177,1.357-0.531
		c0.355-0.353,0.531-0.805,0.531-1.357c0-0.57-0.172-1.027-0.517-1.372c-0.343-0.343-0.802-0.517-1.372-0.517
		c-0.551,0-1.003,0.178-1.357,0.531c-0.355,0.355-0.531,0.807-0.531,1.357c0,0.552,0.177,1.004,0.531,1.357
		C381.688-1576.834,382.14-1576.658,382.691-1576.658 M378.884-1572.526v-1.476c0-0.196-0.099-0.295-0.295-0.295h-2.067
		c-0.078,0-0.118-0.039-0.118-0.118v-3.335c0-0.196-0.099-0.295-0.295-0.295h-2.154c-0.196,0-0.295,0.099-0.295,0.295v3.335
		c0,0.079-0.04,0.118-0.118,0.118h-1.152c-0.196,0-0.295,0.099-0.295,0.295v1.476c0,0.198,0.099,0.295,0.295,0.295h1.152
		c0.078,0,0.118,0.04,0.118,0.118v9.298c0,1.377,0.319,2.311,0.959,2.802c0.64,0.492,1.589,0.739,2.848,0.739h0.915
		c0.196,0,0.295-0.099,0.295-0.295v-1.889c0-0.198-0.099-0.295-0.295-0.295h-0.266c-0.59,0.019-1.024-0.123-1.299-0.429
		c-0.275-0.305-0.413-0.85-0.413-1.638v-8.294c0-0.078,0.041-0.118,0.118-0.118h2.067
		C378.786-1572.231,378.884-1572.328,378.884-1572.526 M365.869-1559.097c1.495,0,2.681-0.373,3.556-1.121
		c0.876-0.748,1.314-1.761,1.314-3.04c0-0.885-0.201-1.623-0.604-2.213c-0.403-0.591-0.871-1.048-1.403-1.372
		c-0.531-0.326-1.2-0.664-2.007-1.019c-0.727-0.314-1.259-0.556-1.594-0.722c-0.334-0.167-0.619-0.389-0.855-0.664
		c-0.236-0.275-0.355-0.62-0.355-1.033c0-0.531,0.178-0.983,0.531-1.357c0.355-0.374,0.836-0.56,1.447-0.56
		c0.591,0,1.072,0.186,1.447,0.56s0.56,0.826,0.56,1.357v0.206c0,0.198,0.099,0.297,0.295,0.297h2.036
		c0.198,0,0.296-0.099,0.296-0.297v-0.087c0-1.319-0.42-2.362-1.255-3.13c-0.836-0.766-1.983-1.15-3.437-1.15
		c-1.417,0-2.543,0.374-3.381,1.121c-0.836,0.748-1.254,1.792-1.254,3.13c0,0.904,0.196,1.652,0.591,2.242
		c0.392,0.591,0.841,1.043,1.343,1.357c0.501,0.316,1.135,0.64,1.903,0.975c0.708,0.295,1.234,0.526,1.579,0.693
		c0.343,0.167,0.643,0.398,0.899,0.693c0.256,0.295,0.384,0.659,0.384,1.092c0,0.551-0.181,1.004-0.546,1.357
		c-0.364,0.355-0.841,0.531-1.432,0.531c-0.609,0-1.121-0.181-1.534-0.546c-0.413-0.363-0.62-0.812-0.62-1.343v-0.206
		c0-0.198-0.099-0.296-0.295-0.296h-2.096c-0.196,0-0.295,0.099-0.295,0.296v0.266c0,1.22,0.428,2.188,1.285,2.906
		C363.227-1559.455,364.393-1559.097,365.869-1559.097 M354.831-1574.504c-1.28,0-2.273,0.434-2.98,1.299
		c-0.04,0.06-0.079,0.084-0.118,0.075c-0.04-0.01-0.06-0.034-0.06-0.075v-0.797c0-0.196-0.099-0.295-0.295-0.295h-2.243
		c-0.196,0-0.295,0.099-0.295,0.295v14.433c0,0.196,0.099,0.295,0.295,0.295h2.243c0.196,0,0.295-0.099,0.295-0.295v-9.769
		c0.019,0,0.029-0.058,0.029-0.177c0.04-0.807,0.241-1.432,0.606-1.874c0.364-0.444,0.87-0.664,1.519-0.664
		c0.63,0,1.123,0.227,1.476,0.679c0.355,0.452,0.531,1.092,0.531,1.918v9.887c0,0.196,0.099,0.295,0.295,0.295h2.243
		c0.196,0,0.295-0.099,0.295-0.295v-10.124c0-1.534-0.329-2.72-0.988-3.556C357.02-1574.084,356.07-1574.504,354.831-1574.504
		 M343.055-1559.274h2.243c0.196,0,0.295-0.099,0.295-0.295v-14.433c0-0.196-0.099-0.295-0.295-0.295h-2.243
		c-0.196,0-0.295,0.099-0.295,0.295v14.433C342.76-1559.373,342.859-1559.274,343.055-1559.274 M344.147-1576.658
		c0.551,0,1.004-0.177,1.357-0.531c0.355-0.353,0.531-0.805,0.531-1.357c0-0.57-0.172-1.027-0.515-1.372
		c-0.345-0.343-0.803-0.517-1.374-0.517c-0.551,0-1.003,0.178-1.357,0.531c-0.353,0.355-0.531,0.807-0.531,1.357
		c0,0.552,0.178,1.004,0.531,1.357C343.144-1576.834,343.596-1576.658,344.147-1576.658 M340.695-1579.933h-2.243
		c-0.177,0-0.285,0.089-0.326,0.266l-1.298,5.666c-0.04,0.099-0.036,0.178,0.015,0.236c0.049,0.058,0.123,0.089,0.222,0.089h1.681
		c0.177,0,0.295-0.079,0.355-0.236l1.829-5.697C340.99-1579.825,340.91-1579.933,340.695-1579.933 M332.814-1559.274h2.243
		c0.196,0,0.295-0.099,0.295-0.295v-20.07c0-0.196-0.099-0.295-0.295-0.295h-2.243c-0.198,0-0.295,0.099-0.295,0.295v20.07
		C332.52-1559.373,332.617-1559.274,332.814-1559.274"/>
</g>
</svg>
