<?xml version="1.0" encoding="utf-8"?>
<!-- Generator: Adobe Illustrator 17.0.0, SVG Export Plug-In . SVG Version: 6.00 Build 0)  -->
<!DOCTYPE svg PUBLIC "-//W3C//DTD SVG 1.1//EN" "http://www.w3.org/Graphics/SVG/1.1/DTD/svg11.dtd">
<svg version="1.1" id="Calque_1" xmlns="http://www.w3.org/2000/svg" xmlns:xlink="http://www.w3.org/1999/xlink" x="0px" y="0px"
	 width="841.89px" height="595.28px" viewBox="0 0 841.89 595.28" enable-background="new 0 0 841.89 595.28" xml:space="preserve">
<path fill="none" stroke="#000000" stroke-miterlimit="10" d="M164.536-385.38v-146.111h97.406v48.705h-48.705v97.406
	L164.536-385.38L164.536-385.38z"/>
<path fill="none" stroke="#000000" stroke-miterlimit="10" d="M501.112-385.38v-48.701h48.703v-97.41h97.411v48.705h-48.705v97.406
	L501.112-385.38L501.112-385.38z"/>
<path fill="#00FFBE" d="M440.563-1092.886c0,10.842-8.785,19.617-19.623,19.617c-10.836,0-19.614-8.775-19.614-19.617
	c0-10.834,8.778-19.615,19.614-19.615C431.778-1112.501,440.563-1103.72,440.563-1092.886z"/>
<g>
	<g>
		<g>
			<path d="M259.724-2937.964v-294.435h196.287v98.147h-98.148v196.287L259.724-2937.964L259.724-2937.964z"/>
			<path d="M381.738-2937.964v-98.14h98.142v-196.295h196.296v98.147h-98.147v196.287L381.738-2937.964L381.738-2937.964z"/>
		</g>
	</g>
	<path fill="#00FFBE" d="M675.996-2977.496c0,21.848-17.703,39.531-39.543,39.531c-21.836,0-39.524-17.684-39.524-39.531
		c0-21.832,17.688-39.528,39.524-39.528C658.292-3017.023,675.996-2999.328,675.996-2977.496z"/>
</g>
<g>
	<path d="M162.083-2328.968v-70.983h47.322v23.661h-23.661v47.322H162.083z"/>
	<path d="M221.25-2328.968v-70.983h70.983v70.983h-23.661v-47.322h-23.661v23.661h23.661l-23.661,23.661L221.25-2328.968
		L221.25-2328.968z"/>
	<path d="M304.078-2305.306v-94.644H351.4l23.661,23.661v47.322h-47.322v23.661L304.078-2305.306L304.078-2305.306z M351.4-2352.629
		v-23.661h-23.661v23.661H351.4z"/>
	<path d="M386.906-2328.968v-23.661h23.661v-47.322h47.322v23.661h-23.661v47.322H386.906z"/>
	<path d="M469.735-2328.968v-47.322l23.661-23.661h47.322v47.322l-23.661,23.661H469.735z M517.057-2352.629v-23.661h-23.661v23.661
		H517.057z"/>
	<path d="M552.563-2328.968v-47.322l23.661-23.661h23.661v-23.661h23.661v94.644L552.563-2328.968L552.563-2328.968z
		 M599.885-2352.629v-23.661h-23.661v23.661H599.885z"/>
	<path d="M670.868-2328.968v-47.322l23.661-23.661h47.322v23.661l-23.661,23.661h23.661v23.661L670.868-2328.968L670.868-2328.968z
		 M718.19-2352.629v-23.661h-23.661v23.661H718.19z"/>
	<g>
		<path d="M635.391-2328.968v-35.477h23.661v35.477H635.391z"/>
		<path fill="#00FFBE" d="M659.876-2387.298c0,6.994-5.667,12.654-12.658,12.654c-6.99,0-12.652-5.661-12.652-12.654
			c0-6.989,5.662-12.653,12.652-12.653C654.209-2399.951,659.876-2394.286,659.876-2387.298z"/>
	</g>
</g>
<g>
	<polygon points="162.083,-1841.048 162.083,-1778.731 182.855,-1778.731 182.855,-1820.276 203.628,-1820.276 203.628,-1841.048 	
		"/>
	<polygon points="214.027,-1778.73 214.027,-1841.047 276.345,-1841.047 276.345,-1778.73 255.572,-1778.73 255.572,-1820.275 
		234.8,-1820.275 234.8,-1799.502 255.572,-1799.502 234.8,-1778.73 	"/>
	<path d="M328.289-1820.275h-20.772v20.772h20.772V-1820.275z M286.744-1757.957v-83.09h41.545l20.772,20.772v41.545h-41.545v20.773
		H286.744z"/>
	<polygon points="359.46,-1778.73 359.46,-1799.502 380.233,-1799.502 380.233,-1841.047 421.778,-1841.047 421.778,-1820.275 
		401.005,-1820.275 401.005,-1778.73 	"/>
	<path d="M473.722-1820.275H452.95v20.772h20.772V-1820.275z M432.177-1778.73v-41.545l20.772-20.772h41.545v41.545l-20.772,20.772
		H432.177z"/>
	<path d="M525.667-1820.275h20.773v20.772h-20.773V-1820.275z M546.439-1861.82v20.772h-20.773l-20.772,20.772v41.545h62.316v-83.09
		L546.439-1861.82L546.439-1861.82z"/>
	<path d="M650.301-1820.275h-20.772v20.772h20.772V-1820.275z M608.757-1778.73v-41.545l20.772-20.772h41.545v20.772l-20.772,20.772
		h20.772v20.772h-62.317V-1778.73z"/>
	<rect x="577.61" y="-1809.876" width="20.772" height="31.146"/>
	<g>
		<g>
			<defs>
				<rect id="SVGID_1_" x="162.083" y="-1861.82" width="531.763" height="138.176"/>
			</defs>
			<clipPath id="SVGID_2_">
				<use xlink:href="#SVGID_1_"  overflow="visible"/>
			</clipPath>
			<path clip-path="url(#SVGID_2_)" fill="#00FFBF" d="M599.107-1829.939c0,6.14-4.975,11.109-11.113,11.109
				c-6.136,0-11.108-4.969-11.108-11.109c0-6.136,4.972-11.109,11.108-11.109C594.131-1841.048,599.107-1836.075,599.107-1829.939"
				/>
		</g>
	</g>
	<g>
		<path d="M318.474-1747.867v-19.952c0-0.195,0.098-0.293,0.293-0.293h2.23c0.196,0,0.294,0.098,0.294,0.293v19.952
			c0,0.195-0.098,0.293-0.294,0.293h-2.23C318.571-1747.574,318.474-1747.672,318.474-1747.867z"/>
		<path d="M326.836-1767.79l-1.819,5.663c-0.059,0.157-0.176,0.235-0.352,0.235h-1.673c-0.098,0-0.171-0.029-0.22-0.088
			s-0.054-0.136-0.014-0.234l1.291-5.634c0.039-0.176,0.147-0.264,0.323-0.264h2.23
			C326.816-1768.112,326.895-1768.004,326.836-1767.79z"/>
		<path d="M328.684-1765.383c-0.352-0.352-0.528-0.803-0.528-1.35s0.176-0.998,0.528-1.35c0.352-0.352,0.802-0.528,1.35-0.528
			c0.567,0,1.022,0.172,1.364,0.515c0.342,0.342,0.514,0.796,0.514,1.364c0,0.547-0.176,0.998-0.528,1.35
			c-0.352,0.352-0.802,0.528-1.349,0.528C329.486-1764.855,329.036-1765.031,328.684-1765.383z M328.654-1747.867v-14.347
			c0-0.196,0.098-0.294,0.294-0.294h2.23c0.195,0,0.293,0.098,0.293,0.294v14.347c0,0.195-0.098,0.293-0.293,0.293h-2.23
			C328.752-1747.574,328.654-1747.672,328.654-1747.867z"/>
		<path d="M343.486-1761.467c0.655,0.832,0.983,2.01,0.983,3.535v10.065c0,0.195-0.098,0.293-0.294,0.293h-2.23
			c-0.196,0-0.293-0.098-0.293-0.293v-9.83c0-0.822-0.176-1.457-0.528-1.907c-0.352-0.449-0.841-0.674-1.467-0.674
			c-0.645,0-1.149,0.22-1.511,0.659c-0.362,0.44-0.562,1.062-0.601,1.863c0,0.118-0.01,0.176-0.03,0.176v9.713
			c0,0.195-0.098,0.293-0.293,0.293h-2.23c-0.196,0-0.294-0.098-0.294-0.293v-14.347c0-0.196,0.098-0.294,0.294-0.294h2.23
			c0.195,0,0.293,0.098,0.293,0.294v0.791c0,0.04,0.02,0.064,0.059,0.074s0.078-0.015,0.118-0.074
			c0.704-0.861,1.692-1.291,2.963-1.291C341.887-1762.714,342.831-1762.297,343.486-1761.467z"/>
		<path d="M348.151-1748.468c-0.85-0.715-1.276-1.677-1.276-2.89v-0.264c0-0.196,0.098-0.294,0.293-0.294h2.083
			c0.195,0,0.293,0.098,0.293,0.294v0.205c0,0.528,0.206,0.973,0.616,1.335c0.411,0.362,0.919,0.542,1.525,0.542
			c0.587,0,1.061-0.175,1.423-0.527c0.362-0.352,0.543-0.803,0.543-1.35c0-0.43-0.128-0.793-0.381-1.086
			c-0.255-0.293-0.553-0.523-0.895-0.689c-0.342-0.166-0.866-0.396-1.569-0.689c-0.763-0.332-1.394-0.655-1.893-0.969
			c-0.499-0.312-0.944-0.762-1.335-1.35c-0.391-0.586-0.587-1.33-0.587-2.229c0-1.33,0.415-2.367,1.247-3.11s1.951-1.115,3.36-1.115
			c1.447,0,2.587,0.381,3.418,1.144c0.831,0.764,1.247,1.8,1.247,3.11v0.088c0,0.196-0.098,0.294-0.293,0.294h-2.024
			c-0.196,0-0.294-0.098-0.294-0.294v-0.205c0-0.528-0.186-0.978-0.557-1.35c-0.372-0.371-0.851-0.557-1.438-0.557
			c-0.606,0-1.085,0.186-1.437,0.557c-0.352,0.372-0.528,0.822-0.528,1.35c0,0.411,0.118,0.754,0.352,1.027
			c0.235,0.274,0.518,0.495,0.851,0.661c0.332,0.166,0.861,0.406,1.584,0.718c0.802,0.352,1.468,0.689,1.995,1.013
			c0.528,0.323,0.993,0.777,1.394,1.364c0.401,0.588,0.601,1.321,0.601,2.202c0,1.271-0.436,2.278-1.306,3.022
			c-0.871,0.744-2.049,1.115-3.535,1.115C350.162-1747.398,349.002-1747.755,348.151-1748.468z"/>
		<path d="M364.274-1760.454h-2.054c-0.079,0-0.118,0.039-0.118,0.117v8.244c0,0.784,0.137,1.326,0.411,1.629
			c0.274,0.303,0.705,0.445,1.291,0.425h0.264c0.195,0,0.293,0.098,0.293,0.293v1.878c0,0.195-0.098,0.293-0.293,0.293h-0.91
			c-1.252,0-2.196-0.244-2.831-0.733c-0.636-0.488-0.954-1.418-0.954-2.788v-9.242c0-0.078-0.04-0.117-0.118-0.117h-1.144
			c-0.196,0-0.293-0.098-0.293-0.293v-1.467c0-0.196,0.098-0.294,0.293-0.294h1.144c0.078,0,0.118-0.039,0.118-0.117v-3.315
			c0-0.196,0.097-0.294,0.293-0.294h2.142c0.195,0,0.293,0.098,0.293,0.294v3.315c0,0.078,0.039,0.117,0.118,0.117h2.054
			c0.195,0,0.293,0.098,0.293,0.294v1.467C364.567-1760.552,364.469-1760.454,364.274-1760.454z"/>
		<path d="M367.003-1765.383c-0.352-0.352-0.528-0.803-0.528-1.35s0.176-0.998,0.528-1.35s0.802-0.528,1.35-0.528
			c0.567,0,1.022,0.172,1.364,0.515c0.342,0.342,0.514,0.796,0.514,1.364c0,0.547-0.176,0.998-0.528,1.35
			c-0.352,0.352-0.802,0.528-1.349,0.528C367.805-1764.855,367.355-1765.031,367.003-1765.383z M366.973-1747.867v-14.347
			c0-0.196,0.098-0.294,0.294-0.294h2.23c0.195,0,0.293,0.098,0.293,0.294v14.347c0,0.195-0.098,0.293-0.293,0.293h-2.23
			C367.071-1747.574,366.973-1747.672,366.973-1747.867z"/>
		<path d="M378.563-1760.454h-2.054c-0.079,0-0.118,0.039-0.118,0.117v8.244c0,0.784,0.137,1.326,0.411,1.629
			c0.274,0.303,0.705,0.445,1.291,0.425h0.264c0.195,0,0.293,0.098,0.293,0.293v1.878c0,0.195-0.098,0.293-0.293,0.293h-0.91
			c-1.252,0-2.196-0.244-2.831-0.733c-0.636-0.488-0.954-1.418-0.954-2.788v-9.242c0-0.078-0.04-0.117-0.118-0.117H372.4
			c-0.196,0-0.293-0.098-0.293-0.293v-1.467c0-0.196,0.098-0.294,0.293-0.294h1.144c0.078,0,0.118-0.039,0.118-0.117v-3.315
			c0-0.196,0.098-0.294,0.293-0.294h2.142c0.195,0,0.293,0.098,0.293,0.294v3.315c0,0.078,0.039,0.117,0.118,0.117h2.054
			c0.195,0,0.293,0.098,0.293,0.294v1.467C378.856-1760.552,378.758-1760.454,378.563-1760.454z"/>
		<path d="M388.156-1762.509h2.23c0.196,0,0.294,0.098,0.294,0.294v14.347c0,0.195-0.098,0.293-0.294,0.293h-2.23
			c-0.196,0-0.293-0.098-0.293-0.293v-0.852c0-0.058-0.014-0.088-0.044-0.088s-0.064,0.02-0.103,0.059
			c-0.587,0.92-1.526,1.379-2.817,1.379c-1.174,0-2.122-0.356-2.846-1.071c-0.724-0.713-1.086-1.804-1.086-3.271v-10.504
			c0-0.196,0.098-0.294,0.293-0.294h2.23c0.196,0,0.294,0.098,0.294,0.294v9.887c0,1.682,0.664,2.524,1.995,2.524
			c0.665,0,1.178-0.24,1.541-0.72c0.362-0.479,0.543-1.139,0.543-1.98v-9.711C387.863-1762.411,387.961-1762.509,388.156-1762.509z"
			/>
		<path d="M399.306-1760.454h-2.054c-0.079,0-0.118,0.039-0.118,0.117v8.244c0,0.784,0.137,1.326,0.411,1.629
			c0.274,0.303,0.705,0.445,1.291,0.425h0.264c0.195,0,0.293,0.098,0.293,0.293v1.878c0,0.195-0.098,0.293-0.293,0.293h-0.91
			c-1.252,0-2.196-0.244-2.831-0.733c-0.636-0.488-0.954-1.418-0.954-2.788v-9.242c0-0.078-0.04-0.117-0.118-0.117h-1.144
			c-0.196,0-0.293-0.098-0.293-0.293v-1.467c0-0.196,0.098-0.294,0.293-0.294h1.144c0.078,0,0.118-0.039,0.118-0.117v-3.315
			c0-0.196,0.098-0.294,0.293-0.294h2.142c0.195,0,0.293,0.098,0.293,0.294v3.315c0,0.078,0.039,0.117,0.118,0.117h2.054
			c0.195,0,0.293,0.098,0.293,0.294v1.467C399.599-1760.552,399.501-1760.454,399.306-1760.454z"/>
		<path d="M414.739-1768.112h2.23c0.195,0,0.293,0.098,0.293,0.293v19.952c0,0.195-0.098,0.293-0.293,0.293h-2.23
			c-0.196,0-0.294-0.098-0.294-0.293v-0.469c0-0.039-0.014-0.069-0.044-0.088c-0.029-0.02-0.064-0.01-0.103,0.029
			c-0.372,0.352-0.792,0.616-1.261,0.793c-0.47,0.176-0.939,0.264-1.408,0.264c-1.291,0-2.314-0.427-3.067-1.277
			s-1.129-1.97-1.129-3.359v-6.103c0-1.448,0.376-2.587,1.129-3.418c0.753-0.832,1.775-1.247,3.067-1.247
			c0.469,0,0.939,0.088,1.408,0.264s0.889,0.439,1.261,0.791c0.039,0.04,0.074,0.049,0.103,0.03c0.03-0.02,0.044-0.049,0.044-0.088
			v-6.074C414.446-1768.014,414.544-1768.112,414.739-1768.112z M413.756-1750.318c0.382-0.361,0.611-0.835,0.689-1.423v-6.601
			c-0.078-0.586-0.308-1.061-0.689-1.423c-0.381-0.362-0.846-0.544-1.393-0.544c-0.627,0-1.14,0.225-1.541,0.676
			c-0.401,0.45-0.601,1.027-0.601,1.731v5.722c0,0.703,0.2,1.281,0.601,1.73c0.401,0.45,0.914,0.676,1.541,0.676
			C412.91-1749.774,413.375-1749.955,413.756-1750.318z"/>
		<path d="M428.661-1761.393c0.91,0.9,1.364,2.082,1.364,3.549v9.977c0,0.195-0.098,0.293-0.294,0.293h-2.23
			c-0.196,0-0.293-0.098-0.293-0.293v-0.645c0-0.039-0.014-0.069-0.044-0.088c-0.03-0.02-0.064-0.01-0.103,0.029
			c-0.685,0.822-1.692,1.233-3.023,1.233c-1.115,0-2.097-0.318-2.948-0.954c-0.851-0.635-1.276-1.765-1.276-3.389
			c0-1.702,0.513-2.949,1.541-3.742c1.027-0.791,2.372-1.188,4.034-1.188h1.702c0.078,0,0.118-0.039,0.118-0.117v-0.852
			c0-0.822-0.196-1.481-0.587-1.98c-0.391-0.498-0.9-0.749-1.525-0.749c-0.489,0-0.9,0.167-1.232,0.5
			c-0.333,0.332-0.528,0.762-0.587,1.291c0,0.196-0.098,0.293-0.294,0.293h-2.377c-0.196,0-0.293-0.097-0.293-0.293
			c0.098-1.252,0.596-2.268,1.497-3.051c0.9-0.782,2.014-1.174,3.345-1.174C426.582-1762.743,427.752-1762.292,428.661-1761.393z
			 M426.446-1750.45c0.508-0.429,0.763-1.035,0.763-1.818v-1.995c0-0.078-0.04-0.118-0.118-0.118h-1.79
			c-0.783,0-1.408,0.211-1.878,0.631c-0.469,0.42-0.704,1.032-0.704,1.833c0,0.704,0.176,1.233,0.528,1.585s0.822,0.528,1.408,0.528
			C425.341-1749.803,425.937-1750.018,426.446-1750.45z"/>
		<path d="M438.358-1760.454h-2.054c-0.079,0-0.118,0.039-0.118,0.117v8.244c0,0.784,0.137,1.326,0.411,1.629
			c0.274,0.303,0.705,0.445,1.291,0.425h0.264c0.195,0,0.293,0.098,0.293,0.293v1.878c0,0.195-0.098,0.293-0.293,0.293h-0.91
			c-1.252,0-2.196-0.244-2.831-0.733c-0.636-0.488-0.954-1.418-0.954-2.788v-9.242c0-0.078-0.04-0.117-0.118-0.117h-1.144
			c-0.196,0-0.293-0.098-0.293-0.293v-1.467c0-0.196,0.098-0.294,0.293-0.294h1.144c0.078,0,0.118-0.039,0.118-0.117v-3.315
			c0-0.196,0.098-0.294,0.293-0.294h2.142c0.195,0,0.293,0.098,0.293,0.294v3.315c0,0.078,0.039,0.117,0.118,0.117h2.054
			c0.195,0,0.293,0.098,0.293,0.294v1.467C438.651-1760.552,438.553-1760.454,438.358-1760.454z"/>
		<path d="M449.199-1761.393c0.91,0.9,1.364,2.082,1.364,3.549v9.977c0,0.195-0.098,0.293-0.294,0.293h-2.23
			c-0.196,0-0.293-0.098-0.293-0.293v-0.645c0-0.039-0.014-0.069-0.044-0.088c-0.03-0.02-0.064-0.01-0.103,0.029
			c-0.685,0.822-1.692,1.233-3.023,1.233c-1.115,0-2.097-0.318-2.948-0.954c-0.851-0.635-1.276-1.765-1.276-3.389
			c0-1.702,0.513-2.949,1.541-3.742c1.027-0.791,2.372-1.188,4.034-1.188h1.702c0.078,0,0.118-0.039,0.118-0.117v-0.852
			c0-0.822-0.196-1.481-0.587-1.98c-0.391-0.498-0.9-0.749-1.525-0.749c-0.489,0-0.9,0.167-1.232,0.5
			c-0.333,0.332-0.528,0.762-0.587,1.291c0,0.196-0.098,0.293-0.294,0.293h-2.377c-0.196,0-0.293-0.097-0.293-0.293
			c0.098-1.252,0.596-2.268,1.497-3.051c0.9-0.782,2.014-1.174,3.345-1.174C447.12-1762.743,448.29-1762.292,449.199-1761.393z
			 M446.984-1750.45c0.508-0.429,0.763-1.035,0.763-1.818v-1.995c0-0.078-0.04-0.118-0.118-0.118h-1.79
			c-0.783,0-1.408,0.211-1.878,0.631c-0.469,0.42-0.704,1.032-0.704,1.833c0,0.704,0.176,1.233,0.528,1.585s0.822,0.528,1.408,0.528
			C445.879-1749.803,446.475-1750.018,446.984-1750.45z"/>
		<path d="M466.26-1768.112h2.23c0.195,0,0.293,0.098,0.293,0.293v19.952c0,0.195-0.098,0.293-0.293,0.293h-2.23
			c-0.196,0-0.294-0.098-0.294-0.293v-0.469c0-0.039-0.014-0.069-0.044-0.088c-0.029-0.02-0.064-0.01-0.103,0.029
			c-0.372,0.352-0.792,0.616-1.261,0.793c-0.47,0.176-0.939,0.264-1.408,0.264c-1.291,0-2.314-0.427-3.067-1.277
			s-1.129-1.97-1.129-3.359v-6.103c0-1.448,0.376-2.587,1.129-3.418c0.753-0.832,1.775-1.247,3.067-1.247
			c0.469,0,0.939,0.088,1.408,0.264s0.889,0.439,1.261,0.791c0.039,0.04,0.074,0.049,0.103,0.03c0.03-0.02,0.044-0.049,0.044-0.088
			v-6.074C465.967-1768.014,466.065-1768.112,466.26-1768.112z M465.277-1750.318c0.382-0.361,0.611-0.835,0.689-1.423v-6.601
			c-0.078-0.586-0.308-1.061-0.689-1.423c-0.381-0.362-0.846-0.544-1.393-0.544c-0.627,0-1.14,0.225-1.541,0.676
			c-0.401,0.45-0.601,1.027-0.601,1.731v5.722c0,0.703,0.2,1.281,0.601,1.73c0.401,0.45,0.914,0.676,1.541,0.676
			C464.431-1749.774,464.896-1749.955,465.277-1750.318z"/>
		<path d="M478.936-1762.509h2.23c0.196,0,0.294,0.098,0.294,0.294v14.347c0,0.195-0.098,0.293-0.294,0.293h-2.23
			c-0.196,0-0.293-0.098-0.293-0.293v-0.852c0-0.058-0.014-0.088-0.044-0.088s-0.064,0.02-0.103,0.059
			c-0.587,0.92-1.526,1.379-2.817,1.379c-1.174,0-2.122-0.356-2.846-1.071c-0.724-0.713-1.086-1.804-1.086-3.271v-10.504
			c0-0.196,0.098-0.294,0.293-0.294h2.23c0.196,0,0.294,0.098,0.294,0.294v9.887c0,1.682,0.664,2.524,1.995,2.524
			c0.665,0,1.178-0.24,1.541-0.72c0.362-0.479,0.543-1.139,0.543-1.98v-9.711C478.643-1762.411,478.74-1762.509,478.936-1762.509z"
			/>
		<path d="M497.333-1762.333c0.136,0.079,0.185,0.205,0.146,0.381l-0.44,2.231c-0.02,0.176-0.137,0.234-0.352,0.176
			c-0.254-0.098-0.528-0.147-0.822-0.147c-0.117,0-0.293,0.02-0.528,0.059c-0.607,0.058-1.111,0.391-1.512,0.998
			c-0.401,0.606-0.601,1.34-0.601,2.2v8.568c0,0.195-0.098,0.293-0.293,0.293h-2.23c-0.196,0-0.294-0.098-0.294-0.293v-14.347
			c0-0.196,0.098-0.294,0.294-0.294h2.23c0.195,0,0.293,0.098,0.293,0.294v1.701c0,0.059,0.015,0.093,0.044,0.103
			c0.03,0.01,0.053-0.015,0.074-0.074c0.567-1.447,1.476-2.17,2.729-2.17C496.559-1762.655,496.981-1762.548,497.333-1762.333z"/>
		<path d="M507.587-1761.393c0.91,0.9,1.364,2.082,1.364,3.549v9.977c0,0.195-0.098,0.293-0.293,0.293h-2.231
			c-0.195,0-0.292-0.098-0.292-0.293v-0.645c0-0.039-0.015-0.069-0.045-0.088c-0.029-0.02-0.063-0.01-0.102,0.029
			c-0.686,0.822-1.692,1.233-3.023,1.233c-1.115,0-2.096-0.318-2.948-0.954c-0.852-0.635-1.277-1.765-1.277-3.389
			c0-1.702,0.513-2.949,1.541-3.742c1.027-0.791,2.372-1.188,4.035-1.188h1.701c0.078,0,0.118-0.039,0.118-0.117v-0.852
			c0-0.822-0.196-1.481-0.588-1.98c-0.391-0.498-0.9-0.749-1.526-0.749c-0.488,0-0.9,0.167-1.232,0.5
			c-0.333,0.332-0.528,0.762-0.588,1.291c0,0.196-0.098,0.293-0.293,0.293h-2.377c-0.196,0-0.293-0.097-0.293-0.293
			c0.097-1.252,0.596-2.268,1.496-3.051c0.901-0.782,2.015-1.174,3.345-1.174C505.508-1762.743,506.677-1762.292,507.587-1761.393z
			 M505.371-1750.45c0.508-0.429,0.764-1.035,0.764-1.818v-1.995c0-0.078-0.04-0.118-0.118-0.118h-1.789
			c-0.783,0-1.409,0.211-1.878,0.631c-0.469,0.42-0.703,1.032-0.703,1.833c0,0.704,0.175,1.233,0.527,1.585s0.822,0.528,1.408,0.528
			C504.265-1749.803,504.861-1750.018,505.371-1750.45z"/>
		<path d="M520.584-1761.467c0.754,0.852,1.13,1.971,1.13,3.36v6.102c0,1.448-0.376,2.588-1.13,3.418
			c-0.754,0.832-1.765,1.248-3.036,1.248c-0.471,0-0.945-0.088-1.424-0.264s-0.905-0.45-1.276-0.822
			c-0.098-0.059-0.147-0.039-0.147,0.058v6.103c0,0.195-0.098,0.293-0.293,0.293h-2.229c-0.196,0-0.294-0.098-0.294-0.293v-19.951
			c0-0.196,0.098-0.294,0.294-0.294h2.229c0.195,0,0.293,0.098,0.293,0.294v0.469c0,0.039,0.019,0.063,0.059,0.073
			c0.039,0.01,0.078-0.005,0.117-0.044c0.371-0.352,0.793-0.611,1.262-0.778c0.469-0.166,0.939-0.249,1.409-0.249
			C518.819-1762.743,519.83-1762.317,520.584-1761.467z M518.326-1759.633c-0.403-0.45-0.916-0.676-1.541-0.676
			c-0.606,0-1.106,0.225-1.496,0.676c-0.393,0.45-0.588,1.027-0.588,1.731v5.722c0,0.703,0.195,1.281,0.588,1.73
			c0.39,0.45,0.889,0.676,1.496,0.676c0.625,0,1.139-0.225,1.541-0.676c0.4-0.449,0.601-1.027,0.601-1.73v-5.722
			C518.927-1758.606,518.726-1759.182,518.326-1759.633z"/>
		<path d="M533.861-1762.626c0,0.078,0.039,0.117,0.118,0.117h2.053c0.195,0,0.293,0.098,0.293,0.294v1.467
			c0,0.195-0.098,0.293-0.293,0.293h-2.053c-0.079,0-0.118,0.039-0.118,0.117v12.47c0,0.195-0.098,0.293-0.293,0.293h-2.2
			c-0.196,0-0.294-0.098-0.294-0.293v-12.47c0-0.078-0.039-0.117-0.117-0.117h-1.086c-0.196,0-0.293-0.098-0.293-0.293v-1.467
			c0-0.196,0.097-0.294,0.293-0.294h1.086c0.078,0,0.117-0.039,0.117-0.117v-0.762c0-1.741,0.362-2.988,1.087-3.742
			c0.722-0.752,1.896-1.13,3.52-1.13h0.381c0.195,0,0.293,0.098,0.293,0.293l-0.058,1.79c0,0.196-0.098,0.293-0.294,0.293h-0.292
			c-0.647,0-1.116,0.211-1.409,0.632c-0.294,0.42-0.44,1.071-0.44,1.951L533.861-1762.626L533.861-1762.626z"/>
		<path d="M545.655-1762.333c0.137,0.079,0.185,0.205,0.147,0.381l-0.44,2.231c-0.02,0.176-0.137,0.234-0.352,0.176
			c-0.254-0.098-0.528-0.147-0.822-0.147c-0.117,0-0.293,0.02-0.527,0.059c-0.608,0.058-1.112,0.391-1.512,0.998
			c-0.4,0.606-0.601,1.34-0.601,2.2v8.568c0,0.195-0.098,0.293-0.293,0.293h-2.231c-0.195,0-0.293-0.098-0.293-0.293v-14.347
			c0-0.196,0.098-0.294,0.293-0.294h2.231c0.195,0,0.293,0.098,0.293,0.294v1.701c0,0.059,0.015,0.093,0.044,0.103
			s0.054-0.015,0.074-0.074c0.566-1.447,1.476-2.17,2.728-2.17C544.882-1762.655,545.304-1762.548,545.655-1762.333z"/>
		<path d="M555.91-1761.393c0.908,0.9,1.364,2.082,1.364,3.549v9.977c0,0.195-0.098,0.293-0.294,0.293h-2.229
			c-0.196,0-0.293-0.098-0.293-0.293v-0.645c0-0.039-0.014-0.069-0.044-0.088c-0.03-0.02-0.063-0.01-0.103,0.029
			c-0.684,0.822-1.691,1.233-3.022,1.233c-1.115,0-2.097-0.318-2.949-0.954c-0.85-0.635-1.276-1.765-1.276-3.389
			c0-1.702,0.513-2.949,1.54-3.742c1.027-0.791,2.373-1.188,4.035-1.188h1.702c0.078,0,0.117-0.039,0.117-0.117v-0.852
			c0-0.822-0.195-1.481-0.588-1.98c-0.39-0.498-0.9-0.749-1.525-0.749c-0.489,0-0.901,0.167-1.233,0.5s-0.528,0.762-0.586,1.291
			c0,0.196-0.098,0.293-0.294,0.293h-2.375c-0.196,0-0.294-0.097-0.294-0.293c0.098-1.252,0.596-2.268,1.497-3.051
			c0.9-0.782,2.014-1.174,3.344-1.174C553.831-1762.743,554.999-1762.292,555.91-1761.393z M553.693-1750.45
			c0.508-0.429,0.764-1.035,0.764-1.818v-1.995c0-0.078-0.039-0.118-0.117-0.118h-1.79c-0.783,0-1.408,0.211-1.878,0.631
			c-0.468,0.42-0.703,1.032-0.703,1.833c0,0.704,0.175,1.233,0.527,1.585c0.352,0.352,0.823,0.528,1.409,0.528
			C552.589-1749.803,553.185-1750.018,553.693-1750.45z"/>
		<path d="M568.849-1761.467c0.655,0.832,0.984,2.01,0.984,3.535v10.065c0,0.195-0.098,0.293-0.294,0.293h-2.229
			c-0.196,0-0.294-0.098-0.294-0.293v-9.83c0-0.822-0.176-1.457-0.528-1.907c-0.351-0.449-0.84-0.674-1.467-0.674
			c-0.644,0-1.149,0.22-1.51,0.659c-0.362,0.44-0.564,1.062-0.601,1.863c0,0.118-0.01,0.176-0.03,0.176v9.713
			c0,0.195-0.098,0.293-0.293,0.293h-2.231c-0.195,0-0.293-0.098-0.293-0.293v-14.347c0-0.196,0.098-0.294,0.293-0.294h2.231
			c0.195,0,0.293,0.098,0.293,0.294v0.791c0,0.04,0.02,0.064,0.058,0.074c0.04,0.01,0.078-0.015,0.118-0.074
			c0.705-0.861,1.691-1.291,2.964-1.291C567.249-1762.714,568.193-1762.297,568.849-1761.467z"/>
		<path d="M573.808-1748.6c-0.891-0.842-1.336-1.975-1.336-3.404v-6.073c0-1.389,0.445-2.514,1.336-3.374
			c0.889-0.861,2.087-1.291,3.593-1.291c0.999,0,1.873,0.19,2.627,0.572c0.752,0.381,1.33,0.9,1.731,1.555
			c0.4,0.655,0.601,1.393,0.601,2.214v0.382c0,0.195-0.098,0.293-0.294,0.293l-2.229,0.088c-0.196,0-0.293-0.098-0.293-0.294v-0.293
			c0-0.567-0.205-1.056-0.616-1.467c-0.411-0.41-0.92-0.616-1.526-0.616c-0.627,0-1.135,0.225-1.525,0.676
			c-0.393,0.45-0.588,1.027-0.588,1.731v5.722c0,0.703,0.195,1.281,0.588,1.73c0.39,0.45,0.898,0.676,1.525,0.676
			c0.606,0,1.115-0.205,1.526-0.617c0.411-0.41,0.616-0.9,0.616-1.467v-0.293c0-0.195,0.097-0.293,0.293-0.293l2.229,0.029
			c0.196,0,0.294,0.098,0.294,0.293v0.44c0,1.272-0.45,2.314-1.35,3.125c-0.9,0.812-2.102,1.218-3.609,1.218
			C575.895-1747.338,574.697-1747.76,573.808-1748.6z"/>
		<path d="M585.925-1748.615c-0.889-0.85-1.335-1.98-1.335-3.389v-6.073c0-1.389,0.45-2.514,1.349-3.374
			c0.901-0.861,2.104-1.291,3.609-1.291c1.526,0,2.739,0.43,3.638,1.291c0.9,0.86,1.35,1.985,1.35,3.374v6.073
			c0,1.409-0.45,2.539-1.35,3.389c-0.9,0.85-2.112,1.277-3.638,1.277S586.814-1747.765,585.925-1748.615z M591.103-1750.464
			c0.411-0.44,0.616-1.022,0.616-1.746v-5.692c0-0.704-0.205-1.281-0.616-1.731s-0.93-0.676-1.555-0.676s-1.139,0.225-1.54,0.676
			c-0.401,0.45-0.603,1.027-0.603,1.731v5.692c0,0.725,0.201,1.306,0.603,1.746c0.401,0.44,0.915,0.66,1.54,0.66
			C590.173-1749.803,590.692-1750.023,591.103-1750.464z"/>
		<path d="M606.14-1761.467c0.754,0.852,1.13,1.971,1.13,3.36v6.102c0,1.448-0.376,2.588-1.13,3.418
			c-0.754,0.832-1.765,1.248-3.036,1.248c-0.471,0-0.945-0.088-1.424-0.264s-0.905-0.45-1.276-0.822
			c-0.098-0.059-0.147-0.039-0.147,0.058v6.103c0,0.195-0.098,0.293-0.293,0.293h-2.229c-0.196,0-0.294-0.098-0.294-0.293v-19.951
			c0-0.196,0.098-0.294,0.294-0.294h2.229c0.195,0,0.293,0.098,0.293,0.294v0.469c0,0.039,0.019,0.063,0.059,0.073
			c0.039,0.01,0.078-0.005,0.117-0.044c0.371-0.352,0.793-0.611,1.262-0.778c0.469-0.166,0.939-0.249,1.409-0.249
			C604.375-1762.743,605.386-1762.317,606.14-1761.467z M603.882-1759.633c-0.403-0.45-0.916-0.676-1.541-0.676
			c-0.606,0-1.106,0.225-1.496,0.676c-0.393,0.45-0.588,1.027-0.588,1.731v5.722c0,0.703,0.195,1.281,0.588,1.73
			c0.39,0.45,0.889,0.676,1.496,0.676c0.625,0,1.139-0.225,1.541-0.676c0.4-0.449,0.601-1.027,0.601-1.73v-5.722
			C604.483-1758.606,604.282-1759.182,603.882-1759.633z"/>
		<path d="M618.845-1761.467c0.654,0.832,0.983,2.01,0.983,3.535v10.065c0,0.195-0.098,0.293-0.293,0.293h-2.231
			c-0.195,0-0.293-0.098-0.293-0.293v-9.83c0-0.822-0.176-1.457-0.528-1.907c-0.352-0.449-0.84-0.674-1.467-0.674
			c-0.645,0-1.15,0.22-1.511,0.659c-0.362,0.44-0.562,1.062-0.601,1.863c0,0.118-0.01,0.176-0.029,0.176v9.713
			c0,0.195-0.098,0.293-0.294,0.293h-2.229c-0.196,0-0.294-0.098-0.294-0.293v-19.952c0-0.195,0.098-0.293,0.294-0.293h2.229
			c0.196,0,0.294,0.098,0.294,0.293v6.396c0,0.04,0.019,0.064,0.058,0.074s0.078-0.015,0.118-0.074
			c0.703-0.861,1.691-1.291,2.963-1.291C617.245-1762.714,618.189-1762.297,618.845-1761.467z"/>
		<path d="M623.804-1748.615c-0.889-0.85-1.335-1.98-1.335-3.389v-6.073c0-1.389,0.45-2.514,1.349-3.374
			c0.901-0.861,2.104-1.291,3.609-1.291c1.526,0,2.739,0.43,3.638,1.291c0.9,0.86,1.35,1.985,1.35,3.374v6.073
			c0,1.409-0.45,2.539-1.35,3.389c-0.9,0.85-2.112,1.277-3.638,1.277S624.693-1747.765,623.804-1748.615z M628.982-1750.464
			c0.411-0.44,0.616-1.022,0.616-1.746v-5.692c0-0.704-0.205-1.281-0.616-1.731s-0.93-0.676-1.555-0.676s-1.139,0.225-1.54,0.676
			c-0.401,0.45-0.603,1.027-0.603,1.731v5.692c0,0.725,0.201,1.306,0.603,1.746c0.401,0.44,0.915,0.66,1.54,0.66
			C628.052-1749.803,628.571-1750.023,628.982-1750.464z"/>
		<path d="M643.96-1761.467c0.657,0.832,0.984,2.01,0.984,3.535v10.065c0,0.195-0.098,0.293-0.294,0.293h-2.229
			c-0.196,0-0.293-0.098-0.293-0.293v-9.83c0-0.822-0.176-1.457-0.528-1.907c-0.351-0.449-0.842-0.674-1.467-0.674
			c-0.645,0-1.149,0.22-1.511,0.659c-0.362,0.44-0.562,1.062-0.601,1.863c0,0.118-0.01,0.176-0.03,0.176v9.713
			c0,0.195-0.098,0.293-0.292,0.293h-2.231c-0.195,0-0.293-0.098-0.293-0.293v-14.347c0-0.196,0.098-0.294,0.293-0.294h2.231
			c0.194,0,0.292,0.098,0.292,0.294v0.791c0,0.04,0.02,0.064,0.059,0.074s0.078-0.015,0.117-0.074
			c0.705-0.861,1.692-1.291,2.964-1.291C642.362-1762.714,643.305-1762.297,643.96-1761.467z"/>
		<path d="M657.15-1753.882h-6.631c-0.079,0-0.117,0.039-0.117,0.117v1.585c0,0.703,0.195,1.281,0.586,1.73
			c0.391,0.45,0.9,0.676,1.526,0.676c0.547,0,1.008-0.166,1.379-0.5c0.371-0.332,0.605-0.762,0.703-1.291
			c0.06-0.156,0.166-0.234,0.323-0.234l2.172,0.117c0.097,0,0.171,0.029,0.22,0.088c0.048,0.059,0.063,0.127,0.044,0.205
			c-0.137,1.272-0.622,2.265-1.453,2.978c-0.83,0.715-1.96,1.072-3.388,1.072c-1.506,0-2.704-0.422-3.594-1.262
			c-0.891-0.842-1.335-1.966-1.335-3.374v-6.103c0-1.389,0.444-2.514,1.335-3.374c0.891-0.861,2.088-1.291,3.594-1.291
			c1.526,0,2.729,0.43,3.609,1.291c0.879,0.86,1.32,1.985,1.32,3.374v3.903C657.443-1753.98,657.345-1753.882,657.15-1753.882z
			 M650.987-1759.633c-0.391,0.45-0.586,1.027-0.586,1.731v1.555c0,0.078,0.038,0.117,0.117,0.117h4.02
			c0.078,0,0.118-0.039,0.118-0.117v-1.555c0-0.704-0.196-1.281-0.588-1.731c-0.391-0.45-0.91-0.676-1.555-0.676
			C651.887-1760.308,651.379-1760.083,650.987-1759.633z"/>
	</g>
</g>
<g>
	<polygon fill="#FFFFFF" points="409.264,177.889 409.264,415.531 488.474,415.531 488.474,257.105 567.69,257.105 567.69,177.889 	
		"/>
	<polygon fill="#FFFFFF" points="586.954,177.889 586.954,336.324 507.741,336.324 507.741,415.531 666.17,415.531 666.17,257.105 
		745.389,257.105 745.389,177.889 	"/>
	<path fill="#00FFBE" d="M745.24,383.625c0,17.633-14.289,31.907-31.916,31.907c-17.624,0-31.901-14.274-31.901-31.907
		c0-17.621,14.277-31.904,31.901-31.904C730.951,351.721,745.24,366.004,745.24,383.625"/>
	<path fill="#FFFFFF" d="M195.689,222.209c-0.14-0.14-0.209-0.31-0.209-0.507v-40.333c0-0.197,0.07-0.367,0.209-0.507
		c0.14-0.14,0.306-0.209,0.507-0.209h5.489c0.197,0,0.367,0.07,0.507,0.209c0.14,0.14,0.209,0.31,0.209,0.507v40.333
		c0,0.197-0.07,0.367-0.209,0.507c-0.14,0.14-0.31,0.209-0.507,0.209h-5.489C195.995,222.419,195.828,222.349,195.689,222.209"/>
	<path fill="#FFFFFF" d="M217.345,180.863c0.1,0.14,0.109,0.349,0.03,0.625l-3.878,11.576c-0.118,0.398-0.379,0.595-0.777,0.595
		h-4.115c-0.519,0-0.716-0.258-0.598-0.774l2.506-11.573c0.079-0.44,0.337-0.658,0.774-0.658h5.55
		C217.078,180.654,217.245,180.724,217.345,180.863"/>
	<path fill="#FFFFFF" d="M223.849,222.209c-0.14-0.14-0.209-0.306-0.209-0.507v-29.054c0-0.2,0.07-0.37,0.209-0.51
		c0.14-0.137,0.306-0.206,0.507-0.206h5.489c0.197,0,0.367,0.07,0.507,0.206c0.14,0.14,0.209,0.31,0.209,0.51v29.054
		c0,0.2-0.07,0.367-0.209,0.507c-0.14,0.14-0.31,0.209-0.507,0.209h-5.489C224.155,222.418,223.988,222.349,223.849,222.209
		 M223.997,186.561c-0.795-0.795-1.193-1.808-1.193-3.044c0-1.232,0.398-2.245,1.193-3.043c0.795-0.795,1.809-1.193,3.044-1.193
		c1.232,0,2.236,0.397,3.013,1.193c0.774,0.798,1.162,1.812,1.162,3.043c0,1.235-0.398,2.249-1.193,3.044
		c-0.795,0.795-1.79,1.193-2.983,1.193C225.806,187.753,224.792,187.356,223.997,186.561"/>
	<path fill="#FFFFFF" d="M258.154,194.048c1.332,1.733,2,4.187,2,7.368v20.288c0,0.197-0.07,0.367-0.209,0.507
		c-0.14,0.14-0.309,0.209-0.507,0.209h-5.489c-0.2,0-0.37-0.07-0.507-0.209c-0.14-0.14-0.209-0.31-0.209-0.507v-19.751
		c0-1.432-0.297-2.543-0.895-3.341c-0.598-0.795-1.453-1.193-2.564-1.193c-1.156,0-2.051,0.419-2.685,1.253
		c-0.637,0.834-0.956,1.988-0.956,3.459v19.572c0,0.197-0.07,0.367-0.209,0.507c-0.14,0.14-0.306,0.209-0.507,0.209h-5.489
		c-0.2,0-0.367-0.07-0.507-0.209c-0.14-0.14-0.209-0.31-0.209-0.507v-29.057c0-0.2,0.07-0.367,0.209-0.507
		c0.14-0.14,0.306-0.209,0.507-0.209h5.489c0.2,0,0.367,0.07,0.507,0.209c0.14,0.14,0.209,0.306,0.209,0.507v1.193
		c0,0.121,0.052,0.191,0.149,0.209c0.1,0.021,0.209-0.049,0.331-0.209c1.35-1.59,3.241-2.385,5.665-2.385
		C254.861,191.453,256.821,192.318,258.154,194.048"/>
	<path fill="#FFFFFF" d="M270.235,220.509c-1.869-1.511-2.804-3.559-2.804-6.145v-0.419c0-0.197,0.07-0.367,0.209-0.507
		c0.137-0.14,0.306-0.209,0.507-0.209h5.131c0.197,0,0.367,0.07,0.507,0.209c0.14,0.14,0.209,0.31,0.209,0.507v0.297
		c0,0.956,0.367,1.751,1.102,2.388c0.737,0.637,1.642,0.953,2.716,0.953c1.035,0,1.851-0.297,2.446-0.895
		c0.598-0.595,0.895-1.35,0.895-2.267c0-0.795-0.258-1.463-0.777-1.997c-0.516-0.537-1.071-0.947-1.669-1.223
		c-0.598-0.279-1.672-0.737-3.223-1.372c-2.267-0.877-4.127-1.991-5.577-3.344c-1.453-1.35-2.179-3.359-2.179-6.026
		c0-2.783,0.886-4.958,2.655-6.53s4.166-2.358,7.188-2.358c3.104,0,5.559,0.825,7.371,2.476c1.809,1.651,2.713,3.869,2.713,6.651
		c0,0.2-0.07,0.367-0.209,0.507c-0.14,0.14-0.306,0.209-0.507,0.209h-5.01c-0.2,0-0.37-0.07-0.507-0.209
		c-0.14-0.14-0.209-0.306-0.209-0.507v-0.358c0-0.953-0.328-1.751-0.986-2.385c-0.655-0.637-1.481-0.956-2.476-0.956
		c-1.035,0-1.857,0.328-2.476,0.986c-0.616,0.655-0.922,1.441-0.922,2.355c0,0.756,0.237,1.393,0.716,1.909
		c0.476,0.519,1.013,0.925,1.608,1.223c0.598,0.3,1.593,0.746,2.986,1.344c1.669,0.677,3.071,1.341,4.206,2
		c1.132,0.655,2.127,1.59,2.983,2.801c0.856,1.217,1.284,2.716,1.284,4.506c0,2.667-0.938,4.773-2.804,6.324
		c-1.872,1.554-4.397,2.327-7.58,2.327C274.611,222.776,272.104,222.02,270.235,220.509"/>
	<path fill="#FFFFFF" d="M307.673,196.614c-0.14,0.14-0.31,0.209-0.507,0.209h-3.699c-0.2,0-0.3,0.1-0.3,0.297v15.63
		c0,1.396,0.261,2.358,0.777,2.895s1.293,0.786,2.327,0.746h0.419c0.197,0,0.367,0.07,0.507,0.209
		c0.137,0.14,0.206,0.306,0.206,0.507v4.594c0,0.197-0.07,0.367-0.206,0.507c-0.14,0.14-0.31,0.209-0.507,0.209h-2.03
		c-2.707,0-4.743-0.498-6.114-1.493c-1.375-0.992-2.06-2.864-2.06-5.608v-18.197c0-0.197-0.1-0.297-0.297-0.297H294.1
		c-0.2,0-0.37-0.07-0.507-0.209c-0.14-0.14-0.209-0.31-0.209-0.507v-3.462c0-0.197,0.07-0.367,0.209-0.507
		c0.137-0.137,0.306-0.209,0.507-0.209h2.088c0.197,0,0.297-0.097,0.297-0.297v-6.563c0-0.197,0.07-0.367,0.209-0.507
		s0.31-0.209,0.507-0.209h5.253c0.197,0,0.367,0.07,0.507,0.209c0.137,0.14,0.206,0.31,0.206,0.507v6.563c0,0.2,0.1,0.297,0.3,0.297
		h3.699c0.197,0,0.367,0.073,0.507,0.209c0.14,0.14,0.209,0.31,0.209,0.507v3.462C307.882,196.305,307.813,196.475,307.673,196.614"
		/>
	<path fill="#FFFFFF" d="M315.37,222.209c-0.14-0.14-0.209-0.306-0.209-0.507v-29.054c0-0.2,0.07-0.37,0.209-0.51
		c0.14-0.137,0.306-0.206,0.507-0.206h5.489c0.197,0,0.367,0.07,0.507,0.206c0.14,0.14,0.209,0.31,0.209,0.51v29.054
		c0,0.2-0.07,0.367-0.209,0.507c-0.14,0.14-0.31,0.209-0.507,0.209h-5.489C315.676,222.418,315.509,222.349,315.37,222.209
		 M315.518,186.561c-0.795-0.795-1.193-1.808-1.193-3.044c0-1.232,0.397-2.245,1.193-3.043c0.795-0.795,1.809-1.193,3.044-1.193
		c1.232,0,2.236,0.397,3.013,1.193c0.774,0.798,1.162,1.812,1.162,3.043c0,1.235-0.398,2.249-1.193,3.044
		c-0.795,0.795-1.79,1.193-2.983,1.193C317.327,187.753,316.314,187.356,315.518,186.561"/>
	<path fill="#FFFFFF" d="M343.291,196.614c-0.14,0.14-0.31,0.209-0.507,0.209h-3.699c-0.2,0-0.3,0.1-0.3,0.297v15.63
		c0,1.396,0.261,2.358,0.777,2.895c0.516,0.537,1.293,0.786,2.327,0.746h0.419c0.197,0,0.367,0.07,0.507,0.209
		c0.137,0.14,0.206,0.306,0.206,0.507v4.594c0,0.197-0.07,0.367-0.206,0.507c-0.14,0.14-0.31,0.209-0.507,0.209h-2.03
		c-2.707,0-4.743-0.498-6.114-1.493c-1.375-0.992-2.06-2.864-2.06-5.608v-18.197c0-0.197-0.1-0.297-0.297-0.297h-2.088
		c-0.2,0-0.37-0.07-0.507-0.209c-0.14-0.14-0.209-0.31-0.209-0.507v-3.462c0-0.197,0.07-0.367,0.209-0.507
		c0.137-0.137,0.306-0.209,0.507-0.209h2.088c0.197,0,0.297-0.097,0.297-0.297v-6.563c0-0.197,0.07-0.367,0.209-0.507
		c0.14-0.14,0.309-0.209,0.507-0.209h5.253c0.197,0,0.367,0.07,0.507,0.209c0.137,0.14,0.206,0.31,0.206,0.507v6.563
		c0,0.2,0.1,0.297,0.3,0.297h3.699c0.197,0,0.367,0.073,0.507,0.209c0.14,0.14,0.209,0.31,0.209,0.507v3.462
		C343.501,196.305,343.431,196.475,343.291,196.614"/>
	<path fill="#FFFFFF" d="M364.531,192.139c0.14-0.14,0.306-0.209,0.507-0.209h5.489c0.2,0,0.367,0.07,0.507,0.209
		c0.14,0.14,0.209,0.31,0.209,0.507v29.057c0,0.197-0.07,0.367-0.209,0.507c-0.14,0.14-0.306,0.209-0.507,0.209h-5.489
		c-0.2,0-0.367-0.07-0.507-0.209c-0.14-0.14-0.209-0.31-0.209-0.507v-1.314c0-0.118-0.039-0.2-0.118-0.24
		c-0.082-0.036-0.161,0-0.24,0.121c-1.153,1.711-3.004,2.564-5.547,2.564c-2.427,0-4.388-0.725-5.878-2.176
		c-1.493-1.453-2.236-3.69-2.236-6.715v-21.298c0-0.197,0.067-0.367,0.206-0.507c0.14-0.14,0.31-0.209,0.51-0.209h5.486
		c0.2,0,0.37,0.07,0.51,0.209c0.137,0.14,0.206,0.31,0.206,0.507v19.809c0,2.983,1.153,4.476,3.462,4.476
		c1.153,0,2.048-0.428,2.685-1.284c0.634-0.856,0.953-2.018,0.953-3.49v-19.511C364.322,192.448,364.391,192.278,364.531,192.139"/>
	<path fill="#FFFFFF" d="M392.214,196.614c-0.14,0.14-0.31,0.209-0.507,0.209h-3.699c-0.2,0-0.3,0.1-0.3,0.297v15.63
		c0,1.396,0.261,2.358,0.777,2.895c0.516,0.537,1.293,0.786,2.327,0.746h0.419c0.197,0,0.367,0.07,0.507,0.209
		c0.137,0.14,0.206,0.306,0.206,0.507v4.594c0,0.197-0.07,0.367-0.206,0.507c-0.14,0.14-0.309,0.209-0.507,0.209h-2.03
		c-2.704,0-4.743-0.498-6.114-1.493c-1.372-0.992-2.06-2.864-2.06-5.608v-18.197c0-0.197-0.1-0.297-0.297-0.297h-2.088
		c-0.2,0-0.367-0.07-0.507-0.209s-0.209-0.31-0.209-0.507v-3.462c0-0.197,0.07-0.367,0.209-0.507
		c0.14-0.137,0.306-0.209,0.507-0.209h2.088c0.197,0,0.297-0.097,0.297-0.297v-6.563c0-0.197,0.07-0.367,0.209-0.507
		c0.14-0.14,0.31-0.209,0.507-0.209h5.253c0.197,0,0.367,0.07,0.507,0.209c0.137,0.14,0.206,0.31,0.206,0.507v6.563
		c0,0.2,0.1,0.297,0.3,0.297h3.699c0.197,0,0.367,0.073,0.507,0.209c0.14,0.14,0.209,0.31,0.209,0.507v3.462
		C392.423,196.305,392.353,196.475,392.214,196.614"/>
	<path fill="#FFFFFF" d="M305.317,277.237c0.634-0.616,1.035-1.441,1.193-2.476v-12.708c-0.158-1.035-0.558-1.86-1.193-2.476
		c-0.637-0.616-1.432-0.926-2.388-0.926c-1.114,0-2.009,0.388-2.682,1.165c-0.677,0.774-1.017,1.799-1.017,3.071v11.036
		c0,1.274,0.34,2.297,1.017,3.074c0.674,0.777,1.569,1.165,2.682,1.165C303.885,278.163,304.68,277.853,305.317,277.237
		 M306.719,242.096c0.14-0.14,0.306-0.209,0.507-0.209h5.489c0.2,0,0.367,0.07,0.507,0.209c0.14,0.14,0.209,0.31,0.209,0.507v40.333
		c0,0.197-0.07,0.367-0.209,0.507c-0.14,0.14-0.306,0.209-0.507,0.209h-5.489c-0.2,0-0.367-0.07-0.507-0.209
		c-0.14-0.14-0.209-0.31-0.209-0.507v-0.716c0-0.121-0.039-0.2-0.118-0.24c-0.082-0.039-0.161-0.018-0.24,0.058
		c-1.432,1.396-3.223,2.091-5.368,2.091c-2.667,0-4.734-0.874-6.205-2.625s-2.209-4.096-2.209-7.04V262.35
		c0-3.022,0.746-5.389,2.239-7.1c1.49-1.708,3.547-2.564,6.175-2.564c0.913,0,1.848,0.17,2.804,0.507
		c0.953,0.34,1.809,0.886,2.564,1.642c0.079,0.079,0.158,0.1,0.24,0.058c0.079-0.036,0.118-0.118,0.118-0.237v-12.053
		C306.509,242.405,306.579,242.235,306.719,242.096"/>
	<path fill="#FFFFFF" d="M334.55,277.266c0.916-0.756,1.375-1.809,1.375-3.162v-3.402c0-0.197-0.1-0.297-0.3-0.297h-3.101
		c-1.353,0-2.446,0.37-3.283,1.105c-0.834,0.737-1.25,1.799-1.25,3.192c0,1.232,0.316,2.157,0.953,2.773s1.45,0.925,2.446,0.925
		C332.584,278.401,333.637,278.025,334.55,277.266 M339.921,255.43c1.948,1.83,2.922,4.236,2.922,7.219v20.285
		c0,0.2-0.07,0.367-0.209,0.507c-0.14,0.14-0.306,0.209-0.507,0.209h-5.486c-0.2,0-0.37-0.07-0.51-0.209s-0.206-0.306-0.206-0.507
		v-1.132c0-0.121-0.042-0.2-0.121-0.24c-0.079-0.039-0.158,0-0.237,0.118c-1.393,1.633-3.423,2.446-6.087,2.446
		c-2.267,0-4.266-0.646-5.996-1.939s-2.594-3.647-2.594-7.07c0-3.578,1.044-6.123,3.132-7.635c2.088-1.514,4.922-2.27,8.502-2.27
		h3.101c0.2,0,0.3-0.097,0.3-0.297v-1.551c0-1.432-0.358-2.573-1.074-3.432c-0.716-0.853-1.611-1.281-2.685-1.281
		c-0.834,0-1.532,0.267-2.088,0.804c-0.558,0.537-0.895,1.262-1.017,2.176c-0.039,0.479-0.297,0.716-0.774,0.716H322.5
		c-0.479,0-0.698-0.237-0.658-0.716c0.2-2.701,1.262-4.87,3.192-6.503c1.93-1.629,4.345-2.443,7.249-2.443
		C335.424,252.687,337.97,253.601,339.921,255.43"/>
	<path fill="#FFFFFF" d="M363.338,257.847c-0.14,0.14-0.31,0.209-0.507,0.209h-3.699c-0.2,0-0.3,0.1-0.3,0.297v15.63
		c0,1.396,0.261,2.358,0.777,2.895s1.293,0.786,2.327,0.746h0.419c0.197,0,0.367,0.07,0.507,0.209
		c0.137,0.14,0.206,0.306,0.206,0.507v4.594c0,0.197-0.07,0.367-0.206,0.507c-0.14,0.14-0.309,0.209-0.507,0.209h-2.03
		c-2.707,0-4.743-0.498-6.114-1.493c-1.375-0.992-2.06-2.864-2.06-5.608v-18.197c0-0.197-0.1-0.297-0.297-0.297h-2.088
		c-0.2,0-0.37-0.07-0.507-0.209c-0.14-0.14-0.209-0.31-0.209-0.507v-3.462c0-0.197,0.07-0.367,0.209-0.507
		c0.137-0.137,0.306-0.209,0.507-0.209h2.088c0.197,0,0.297-0.097,0.297-0.297v-6.563c0-0.197,0.07-0.367,0.209-0.507
		c0.14-0.14,0.31-0.209,0.507-0.209h5.253c0.197,0,0.367,0.07,0.507,0.209c0.137,0.14,0.206,0.31,0.206,0.507v6.563
		c0,0.2,0.1,0.297,0.3,0.297h3.699c0.197,0,0.367,0.073,0.507,0.209c0.14,0.14,0.209,0.31,0.209,0.507v3.462
		C363.547,257.537,363.477,257.707,363.338,257.847"/>
	<path fill="#FFFFFF" d="M383.234,277.266c0.916-0.756,1.375-1.809,1.375-3.162v-3.402c0-0.197-0.1-0.297-0.3-0.297h-3.101
		c-1.353,0-2.446,0.37-3.28,1.105c-0.837,0.737-1.253,1.799-1.253,3.192c0,1.232,0.316,2.157,0.953,2.773s1.45,0.925,2.446,0.925
		C381.267,278.401,382.32,278.025,383.234,277.266 M388.605,255.43c1.948,1.83,2.922,4.236,2.922,7.219v20.285
		c0,0.2-0.07,0.367-0.206,0.507c-0.14,0.14-0.31,0.209-0.51,0.209h-5.486c-0.2,0-0.37-0.07-0.51-0.209
		c-0.14-0.14-0.206-0.306-0.206-0.507v-1.132c0-0.121-0.042-0.2-0.121-0.24c-0.079-0.039-0.158,0-0.237,0.118
		c-1.393,1.633-3.423,2.446-6.087,2.446c-2.267,0-4.266-0.646-5.996-1.939s-2.594-3.647-2.594-7.07c0-3.578,1.044-6.123,3.132-7.635
		c2.088-1.514,4.922-2.27,8.502-2.27h3.101c0.2,0,0.3-0.097,0.3-0.297v-1.551c0-1.432-0.358-2.573-1.074-3.432
		c-0.716-0.853-1.611-1.281-2.685-1.281c-0.834,0-1.532,0.267-2.088,0.804c-0.558,0.537-0.895,1.262-1.013,2.176
		c-0.042,0.479-0.3,0.716-0.777,0.716h-5.787c-0.479,0-0.698-0.237-0.658-0.716c0.2-2.701,1.262-4.87,3.192-6.503
		c1.93-1.629,4.345-2.443,7.249-2.443C384.111,252.687,386.657,253.601,388.605,255.43"/>
	<path fill="#FFFFFF" d="M259.259,338.469c0.634-0.616,1.035-1.441,1.193-2.476v-12.708c-0.158-1.035-0.558-1.857-1.193-2.476
		c-0.637-0.616-1.432-0.925-2.388-0.925c-1.114,0-2.009,0.388-2.682,1.165c-0.677,0.774-1.017,1.799-1.017,3.071v11.036
		c0,1.274,0.34,2.297,1.017,3.074c0.674,0.777,1.569,1.165,2.682,1.165C257.826,339.395,258.621,339.085,259.259,338.469
		 M260.661,303.328c0.14-0.14,0.306-0.209,0.507-0.209h5.489c0.2,0,0.367,0.07,0.507,0.209c0.14,0.14,0.209,0.31,0.209,0.507v40.333
		c0,0.197-0.07,0.367-0.209,0.507s-0.306,0.209-0.507,0.209h-5.489c-0.2,0-0.367-0.07-0.507-0.209s-0.209-0.31-0.209-0.507v-0.716
		c0-0.121-0.039-0.2-0.118-0.24c-0.082-0.039-0.161-0.018-0.24,0.058c-1.432,1.396-3.223,2.091-5.368,2.091
		c-2.667,0-4.734-0.874-6.205-2.625s-2.209-4.096-2.209-7.04v-12.113c0-3.022,0.746-5.389,2.239-7.1
		c1.49-1.708,3.547-2.564,6.175-2.564c0.913,0,1.848,0.17,2.804,0.507c0.953,0.34,1.809,0.886,2.564,1.642
		c0.079,0.079,0.158,0.1,0.24,0.058c0.079-0.036,0.118-0.118,0.118-0.237v-12.053C260.451,303.638,260.521,303.468,260.661,303.328"
		/>
	<path fill="#FFFFFF" d="M289.835,314.604c0.14-0.137,0.306-0.209,0.507-0.209h5.489c0.2,0,0.367,0.073,0.507,0.209
		c0.14,0.14,0.209,0.31,0.209,0.507v29.057c0,0.197-0.07,0.367-0.209,0.507s-0.306,0.209-0.507,0.209h-5.489
		c-0.2,0-0.367-0.07-0.507-0.209c-0.14-0.14-0.209-0.31-0.209-0.507v-1.314c0-0.118-0.039-0.2-0.118-0.24
		c-0.082-0.036-0.161,0-0.24,0.121c-1.153,1.711-3.004,2.564-5.547,2.564c-2.428,0-4.388-0.725-5.878-2.176
		c-1.493-1.453-2.236-3.69-2.236-6.715V315.11c0-0.197,0.067-0.367,0.206-0.507c0.14-0.137,0.31-0.209,0.51-0.209h5.489
		c0.197,0,0.367,0.073,0.507,0.209c0.137,0.14,0.206,0.31,0.206,0.507v19.809c0,2.983,1.153,4.476,3.462,4.476
		c1.153,0,2.048-0.428,2.685-1.284c0.634-0.856,0.953-2.018,0.953-3.49V315.11C289.626,314.913,289.695,314.744,289.835,314.604"/>
	<path fill="#FFFFFF" d="M334.849,314.635c0.319,0.2,0.437,0.498,0.358,0.895l-0.956,5.547c-0.039,0.476-0.319,0.619-0.834,0.419
		c-0.555-0.158-1.074-0.24-1.551-0.24s-0.916,0.061-1.314,0.179c-1.114,0.161-2.018,0.786-2.713,1.878
		c-0.698,1.095-1.044,2.397-1.044,3.908v16.886c0,0.197-0.07,0.367-0.209,0.507c-0.14,0.14-0.309,0.209-0.507,0.209h-5.489
		c-0.2,0-0.37-0.07-0.507-0.209c-0.14-0.14-0.209-0.31-0.209-0.507V315.11c0-0.2,0.07-0.367,0.209-0.507
		c0.137-0.14,0.306-0.209,0.507-0.209h5.489c0.197,0,0.367,0.07,0.507,0.209c0.14,0.14,0.209,0.306,0.209,0.507v2.746
		c0,0.158,0.039,0.249,0.118,0.267c0.079,0.021,0.14-0.049,0.179-0.209c1.074-2.585,2.825-3.878,5.25-3.878
		C333.417,314.037,334.252,314.237,334.849,314.635"/>
	<path fill="#FFFFFF" d="M353.94,338.499c0.916-0.756,1.375-1.809,1.375-3.162v-3.402c0-0.197-0.1-0.297-0.3-0.297h-3.101
		c-1.353,0-2.446,0.37-3.283,1.105c-0.834,0.737-1.25,1.799-1.25,3.192c0,1.232,0.316,2.157,0.953,2.773s1.45,0.926,2.446,0.926
		C351.974,339.633,353.027,339.257,353.94,338.499 M359.311,316.663c1.948,1.83,2.922,4.236,2.922,7.219v20.285
		c0,0.2-0.07,0.367-0.209,0.507c-0.14,0.14-0.306,0.209-0.507,0.209h-5.486c-0.2,0-0.37-0.07-0.51-0.209
		c-0.14-0.14-0.206-0.306-0.206-0.507v-1.132c0-0.121-0.042-0.2-0.121-0.24c-0.079-0.039-0.158,0-0.237,0.118
		c-1.393,1.633-3.423,2.446-6.087,2.446c-2.267,0-4.266-0.646-5.996-1.939s-2.594-3.647-2.594-7.067
		c0-3.581,1.044-6.126,3.132-7.638c2.088-1.514,4.922-2.27,8.502-2.27h3.101c0.2,0,0.3-0.097,0.3-0.297v-1.551
		c0-1.432-0.358-2.573-1.074-3.432c-0.716-0.853-1.611-1.281-2.685-1.281c-0.834,0-1.532,0.267-2.088,0.804
		c-0.558,0.537-0.895,1.262-1.013,2.176c-0.042,0.479-0.3,0.716-0.777,0.716h-5.787c-0.479,0-0.698-0.237-0.658-0.716
		c0.2-2.701,1.262-4.87,3.192-6.5c1.93-1.633,4.345-2.446,7.249-2.446C354.814,313.92,357.36,314.833,359.311,316.663"/>
	<path fill="#FFFFFF" d="M383.592,321.019c-0.677-0.795-1.572-1.196-2.685-1.196c-1.074,0-1.939,0.401-2.594,1.196
		s-0.983,1.83-0.983,3.101v11.036c0,1.274,0.328,2.297,0.983,3.074s1.52,1.165,2.594,1.165c1.114,0,2.009-0.388,2.685-1.165
		s1.013-1.799,1.013-3.074V324.12C384.606,322.849,384.269,321.814,383.592,321.019 M389.261,316.513
		c1.472,1.733,2.206,4.087,2.206,7.07v12.053c0,3.065-0.734,5.45-2.206,7.158c-1.472,1.711-3.541,2.567-6.205,2.567
		c-0.913,0-1.848-0.17-2.804-0.507c-0.956-0.34-1.812-0.886-2.564-1.642c-0.082-0.079-0.161-0.1-0.24-0.058
		c-0.079,0.039-0.118,0.115-0.118,0.237v12.05c0,0.2-0.07,0.37-0.209,0.51s-0.31,0.206-0.507,0.206h-5.489
		c-0.2,0-0.37-0.067-0.507-0.206c-0.143-0.14-0.209-0.31-0.209-0.51v-40.33c0-0.2,0.067-0.367,0.209-0.507
		c0.137-0.14,0.306-0.209,0.507-0.209h5.489c0.197,0,0.367,0.07,0.507,0.209s0.209,0.306,0.209,0.507v0.716
		c0,0.121,0.049,0.188,0.149,0.209c0.097,0.018,0.209-0.049,0.328-0.209c1.393-1.271,3.141-1.909,5.249-1.909
		C385.72,313.918,387.789,314.783,389.261,316.513"/>
	<path fill="#FFFFFF" d="M110.79,375.837c0.14,0.14,0.209,0.31,0.209,0.507v3.52c0,0.2-0.07,0.37-0.209,0.507
		c-0.14,0.143-0.31,0.209-0.507,0.209h-3.699c-0.2,0-0.297,0.1-0.297,0.297v24.524c0,0.197-0.073,0.367-0.209,0.507
		c-0.14,0.14-0.31,0.209-0.507,0.209h-5.432c-0.197,0-0.367-0.07-0.507-0.209c-0.14-0.14-0.209-0.31-0.209-0.507v-24.524
		c0-0.197-0.097-0.297-0.297-0.297h-1.909c-0.2,0-0.367-0.067-0.507-0.209c-0.14-0.137-0.209-0.306-0.209-0.507v-3.52
		c0-0.197,0.07-0.367,0.209-0.507c0.14-0.137,0.306-0.209,0.507-0.209h1.909c0.2,0,0.297-0.097,0.297-0.297v-1.49
		c0-3.581,0.816-6.105,2.449-7.58c1.629-1.472,4.236-2.188,7.814-2.145h0.479c0.197,0,0.367,0.07,0.507,0.206
		c0.14,0.14,0.209,0.31,0.209,0.51l-0.121,4.057c0,0.197-0.07,0.367-0.209,0.507s-0.306,0.206-0.507,0.206h-0.297
		c-1.193,0.042-2.069,0.428-2.625,1.165c-0.558,0.737-0.834,1.86-0.834,3.371v1.193c0,0.2,0.097,0.297,0.297,0.297h3.699
		C110.481,375.627,110.651,375.7,110.79,375.837"/>
	<path fill="#FFFFFF" d="M133.253,375.867c0.319,0.2,0.437,0.498,0.358,0.895l-0.956,5.547c-0.039,0.476-0.319,0.619-0.834,0.419
		c-0.558-0.158-1.074-0.24-1.551-0.24s-0.916,0.061-1.314,0.182c-1.114,0.158-2.018,0.783-2.713,1.875
		c-0.698,1.095-1.044,2.397-1.044,3.908v16.886c0,0.197-0.073,0.367-0.209,0.507c-0.14,0.14-0.31,0.209-0.507,0.209h-5.489
		c-0.2,0-0.37-0.07-0.507-0.209c-0.14-0.14-0.209-0.31-0.209-0.507v-28.997c0-0.2,0.07-0.367,0.209-0.507
		c0.137-0.14,0.306-0.209,0.507-0.209h5.489c0.197,0,0.367,0.07,0.507,0.209c0.137,0.14,0.209,0.306,0.209,0.507v2.746
		c0,0.158,0.036,0.249,0.118,0.267c0.079,0.021,0.14-0.049,0.179-0.209c1.074-2.585,2.822-3.878,5.25-3.878
		C131.82,375.269,132.655,375.47,133.253,375.867"/>
	<path fill="#FFFFFF" d="M152.343,399.731c0.916-0.756,1.375-1.809,1.375-3.162v-3.402c0-0.197-0.1-0.297-0.3-0.297h-3.101
		c-1.353,0-2.446,0.37-3.28,1.105c-0.837,0.737-1.253,1.799-1.253,3.192c0,1.232,0.316,2.157,0.953,2.773
		c0.637,0.616,1.453,0.926,2.446,0.926C150.376,400.866,151.429,400.49,152.343,399.731 M157.714,377.896
		c1.948,1.83,2.922,4.236,2.922,7.219V405.4c0,0.2-0.07,0.367-0.206,0.507c-0.14,0.14-0.31,0.209-0.507,0.209h-5.489
		c-0.2,0-0.37-0.07-0.51-0.209c-0.14-0.14-0.206-0.306-0.206-0.507v-1.132c0-0.121-0.042-0.2-0.121-0.24
		c-0.079-0.039-0.158,0-0.237,0.118c-1.393,1.633-3.423,2.446-6.087,2.446c-2.267,0-4.266-0.646-5.996-1.939
		s-2.594-3.647-2.594-7.07c0-3.578,1.044-6.123,3.132-7.635c2.088-1.514,4.922-2.27,8.502-2.27h3.101c0.2,0,0.3-0.097,0.3-0.297
		v-1.551c0-1.432-0.358-2.573-1.074-3.432c-0.716-0.853-1.611-1.281-2.685-1.281c-0.834,0-1.532,0.267-2.088,0.804
		c-0.558,0.537-0.895,1.262-1.013,2.176c-0.042,0.479-0.3,0.716-0.777,0.716h-5.787c-0.479,0-0.698-0.237-0.658-0.716
		c0.2-2.701,1.262-4.87,3.192-6.503c1.93-1.629,4.345-2.443,7.249-2.443C153.22,375.153,155.762,376.066,157.714,377.896"/>
	<path fill="#FFFFFF" d="M187.514,377.746c1.332,1.73,2,4.187,2,7.367v20.288c0,0.197-0.07,0.367-0.209,0.507
		c-0.14,0.14-0.31,0.209-0.507,0.209h-5.489c-0.2,0-0.37-0.07-0.507-0.209c-0.14-0.14-0.209-0.31-0.209-0.507V385.65
		c0-1.432-0.297-2.543-0.895-3.341c-0.598-0.795-1.453-1.193-2.564-1.193c-1.156,0-2.051,0.419-2.685,1.253
		c-0.637,0.834-0.956,1.988-0.956,3.459V405.4c0,0.197-0.07,0.367-0.209,0.507s-0.306,0.209-0.507,0.209h-5.489
		c-0.197,0-0.367-0.07-0.507-0.209s-0.209-0.31-0.209-0.507v-29.057c0-0.2,0.07-0.367,0.209-0.507c0.14-0.14,0.31-0.209,0.507-0.209
		h5.489c0.2,0,0.367,0.07,0.507,0.209c0.14,0.14,0.209,0.306,0.209,0.507v1.193c0,0.121,0.049,0.191,0.149,0.209
		c0.1,0.021,0.209-0.049,0.328-0.209c1.353-1.59,3.244-2.385,5.668-2.385C184.222,375.151,186.182,376.016,187.514,377.746"/>
	<path fill="#FFFFFF" d="M200.103,403.967c-1.89-1.751-2.834-4.118-2.834-7.097v-12.056c0-2.901,0.944-5.237,2.834-7.009
		c1.887-1.769,4.464-2.655,7.726-2.655s5.847,0.865,7.756,2.594c1.909,1.733,2.864,3.93,2.864,6.594v0.837
		c0,0.197-0.07,0.367-0.209,0.507c-0.14,0.14-0.306,0.209-0.507,0.209l-5.489,0.237c-0.476,0-0.716-0.237-0.716-0.716v-0.598
		c0-0.992-0.349-1.857-1.044-2.594c-0.695-0.734-1.581-1.102-2.655-1.102s-1.948,0.394-2.625,1.193
		c-0.677,0.795-1.014,1.809-1.014,3.043v11.036c0,1.235,0.337,2.248,1.014,3.043s1.551,1.193,2.625,1.193s1.96-0.367,2.655-1.105
		c0.695-0.734,1.044-1.617,1.044-2.652v-0.598c0-0.2,0.07-0.367,0.209-0.507s0.306-0.209,0.507-0.209l5.489,0.058
		c0.2,0,0.367,0.07,0.507,0.209c0.14,0.14,0.209,0.31,0.209,0.507v1.074c0,2.746-0.956,4.961-2.864,6.654
		c-1.909,1.69-4.494,2.534-7.756,2.534S201.991,405.718,200.103,403.967"/>
	<path fill="#FFFFFF" d="M238.765,399.404c0.695-0.774,1.044-1.799,1.044-3.074v-10.975c0-1.235-0.349-2.248-1.044-3.043
		c-0.698-0.798-1.602-1.193-2.716-1.193s-2.009,0.385-2.685,1.162c-0.677,0.777-1.013,1.799-1.013,3.074v10.975
		c0,1.274,0.337,2.3,1.013,3.074s1.572,1.162,2.685,1.162S238.067,400.177,238.765,399.404 M228.263,403.967
		c-1.89-1.751-2.834-4.118-2.834-7.097v-11.995c0-2.943,0.956-5.298,2.864-7.07c1.909-1.769,4.494-2.655,7.756-2.655
		c3.301,0,5.905,0.886,7.817,2.655c1.909,1.772,2.861,4.127,2.861,7.07v11.995c0,2.98-0.944,5.347-2.834,7.097
		c-1.887,1.751-4.503,2.625-7.844,2.625C232.748,406.592,230.151,405.718,228.263,403.967"/>
	<path fill="#FFFFFF" d="M268.087,382.252c-0.677-0.795-1.572-1.196-2.685-1.196c-1.074,0-1.939,0.401-2.594,1.196
		s-0.983,1.83-0.983,3.101v11.036c0,1.274,0.328,2.297,0.983,3.074s1.52,1.165,2.594,1.165c1.114,0,2.009-0.388,2.685-1.165
		s1.013-1.799,1.013-3.074v-11.036C269.1,384.081,268.764,383.047,268.087,382.252 M273.755,377.746
		c1.472,1.73,2.209,4.087,2.209,7.07v12.053c0,3.065-0.737,5.45-2.209,7.158c-1.472,1.711-3.541,2.567-6.205,2.567
		c-0.913,0-1.848-0.17-2.804-0.507c-0.956-0.34-1.812-0.886-2.564-1.642c-0.082-0.079-0.161-0.1-0.24-0.058
		c-0.079,0.039-0.118,0.115-0.118,0.237v12.05c0,0.2-0.07,0.37-0.209,0.51c-0.14,0.14-0.309,0.206-0.507,0.206h-5.489
		c-0.2,0-0.37-0.067-0.507-0.206c-0.14-0.14-0.209-0.31-0.209-0.51v-40.33c0-0.2,0.07-0.367,0.209-0.507
		c0.137-0.14,0.306-0.209,0.507-0.209h5.489c0.197,0,0.367,0.07,0.507,0.209c0.14,0.14,0.209,0.306,0.209,0.507v0.716
		c0,0.121,0.049,0.188,0.149,0.209c0.097,0.018,0.209-0.049,0.328-0.209c1.393-1.271,3.141-1.909,5.25-1.909
		C270.214,375.151,272.284,376.016,273.755,377.746"/>
	<path fill="#FFFFFF" d="M302.9,377.746c1.332,1.73,2,4.187,2,7.367v20.288c0,0.197-0.07,0.367-0.209,0.507
		c-0.14,0.14-0.31,0.209-0.507,0.209h-5.489c-0.2,0-0.37-0.07-0.507-0.209c-0.14-0.14-0.209-0.31-0.209-0.507V385.65
		c0-1.432-0.297-2.543-0.895-3.341c-0.598-0.795-1.453-1.193-2.564-1.193c-1.156,0-2.051,0.419-2.685,1.253
		c-0.637,0.834-0.956,1.988-0.956,3.459V405.4c0,0.197-0.07,0.367-0.209,0.507s-0.306,0.209-0.507,0.209h-5.489
		c-0.2,0-0.367-0.07-0.507-0.209c-0.14-0.14-0.209-0.31-0.209-0.507v-40.333c0-0.197,0.07-0.367,0.209-0.507
		c0.14-0.14,0.306-0.209,0.507-0.209h5.489c0.2,0,0.367,0.07,0.507,0.209c0.14,0.14,0.209,0.309,0.209,0.507v12.468
		c0,0.121,0.049,0.191,0.149,0.209c0.1,0.021,0.209-0.049,0.328-0.209c1.353-1.59,3.244-2.385,5.668-2.385
		C299.608,375.151,301.568,376.016,302.9,377.746"/>
	<path fill="#FFFFFF" d="M325.991,399.404c0.695-0.774,1.044-1.799,1.044-3.074v-10.975c0-1.235-0.349-2.248-1.044-3.043
		c-0.698-0.798-1.602-1.193-2.716-1.193s-2.009,0.385-2.685,1.162c-0.677,0.777-1.013,1.799-1.013,3.074v10.975
		c0,1.274,0.337,2.3,1.013,3.074c0.677,0.774,1.572,1.162,2.685,1.162C324.388,400.566,325.293,400.177,325.991,399.404
		 M315.488,403.967c-1.89-1.751-2.834-4.118-2.834-7.097v-11.995c0-2.943,0.956-5.298,2.864-7.07
		c1.909-1.769,4.494-2.655,7.756-2.655c3.301,0,5.905,0.886,7.817,2.655c1.909,1.772,2.861,4.127,2.861,7.07v11.995
		c0,2.98-0.944,5.347-2.834,7.097c-1.887,1.751-4.503,2.625-7.844,2.625C319.973,406.592,317.376,405.718,315.488,403.967"/>
	<path fill="#FFFFFF" d="M360.831,377.746c1.332,1.73,2,4.187,2,7.367v20.288c0,0.197-0.07,0.367-0.209,0.507
		s-0.31,0.209-0.507,0.209h-5.489c-0.2,0-0.37-0.07-0.507-0.209c-0.14-0.14-0.209-0.31-0.209-0.507V385.65
		c0-1.432-0.297-2.543-0.895-3.341c-0.598-0.795-1.453-1.193-2.564-1.193c-1.156,0-2.051,0.419-2.685,1.253
		c-0.637,0.834-0.956,1.988-0.956,3.459V405.4c0,0.197-0.07,0.367-0.209,0.507s-0.306,0.209-0.507,0.209h-5.489
		c-0.197,0-0.367-0.07-0.507-0.209s-0.209-0.31-0.209-0.507v-29.057c0-0.2,0.07-0.367,0.209-0.507c0.14-0.14,0.31-0.209,0.507-0.209
		h5.489c0.2,0,0.367,0.07,0.507,0.209c0.14,0.14,0.209,0.306,0.209,0.507v1.193c0,0.121,0.049,0.191,0.149,0.209
		c0.1,0.021,0.209-0.049,0.328-0.209c1.353-1.59,3.244-2.385,5.668-2.385C357.539,375.151,359.499,376.016,360.831,377.746"/>
	<path fill="#FFFFFF" d="M378.523,382.309c-0.677,0.798-1.017,1.812-1.017,3.044v2.685c0,0.2,0.1,0.297,0.3,0.297h6.739
		c0.2,0,0.3-0.097,0.3-0.297v-2.685c0-1.271-0.34-2.294-1.017-3.071s-1.572-1.165-2.682-1.165
		C380.073,381.116,379.197,381.514,378.523,382.309 M391.498,393.199c-0.14,0.14-0.31,0.209-0.507,0.209h-13.184
		c-0.2,0-0.3,0.1-0.3,0.297v2.685c0,1.232,0.34,2.245,1.017,3.043c0.674,0.795,1.551,1.193,2.625,1.193
		c0.913,0,1.699-0.288,2.355-0.865c0.658-0.577,1.083-1.323,1.284-2.239c0.118-0.394,0.379-0.595,0.777-0.595l5.31,0.237
		c0.197,0,0.367,0.07,0.507,0.209c0.137,0.14,0.188,0.328,0.149,0.567c-0.279,2.783-1.293,4.922-3.043,6.415
		c-1.751,1.49-4.197,2.236-7.337,2.236c-3.262,0-5.838-0.865-7.729-2.594c-1.887-1.733-2.831-4.087-2.831-7.07v-12.113
		c0-2.901,0.944-5.24,2.831-7.009c1.89-1.769,4.467-2.655,7.729-2.655c3.259,0,5.835,0.886,7.726,2.655
		c1.887,1.769,2.834,4.109,2.834,7.009v7.877C391.707,392.89,391.638,393.06,391.498,393.199"/>
</g>
</svg>
